<?xml version="1.0" encoding="utf-8"?>
<!-- Generator: Adobe Illustrator 27.0.1, SVG Export Plug-In . SVG Version: 6.00 Build 0)  -->
<svg version="1.1" id="Layer_1" xmlns="http://www.w3.org/2000/svg" xmlns:xlink="http://www.w3.org/1999/xlink" x="0px" y="0px"
	 width="294px" height="108.2px" viewBox="0 0 294 108.2" style="enable-background:new 0 0 294 108.2;" xml:space="preserve">
<style type="text/css">
	.st0{fill:#5BB3B1;}
	.st1{fill:#FFFFFF;}
	.st2{fill:#24376F;}
</style>
<g id="Group_182" transform="translate(-452.119 -255.467)">
	<path id="Path_17" class="st0" d="M740.9,282.2H551.8c3.6,5.4,6.2,11.5,7.5,17.8c0.4,3.1,0.6,6.2,0.6,9.3l0,0c0,0,0,0.1,0,0.1
		c0,0.7-0.6,1.3-1.3,1.3c-0.6,0-1.1-0.4-1.3-0.9h0c-1.6-7.2-5.5-13.7-11-18.6l0,0c-14.5-12.8-36.6-11.4-49.4,3.1
		c-12.8,14.5-11.4,36.6,3.1,49.4c7.9,7,18.5,10,28.9,8.3c1.5-0.3,2.8-0.8,4.1-1.6l-0.1-0.1c-1.2-2-3-3.5-5.1-4.3
		c-0.4-0.2-1.7-0.4-1.6-1.2c0.1-0.7,0.6-0.9,2.9-0.9l17.1,0.1c0,0,0.1,0,0.1,0h194.7c2.9,0,5.2-2.3,5.2-5.2v-51.6
		C746.1,284.5,743.8,282.2,740.9,282.2z"/>
	<path id="Path_18" class="st1" d="M737.9,318.3H488.1c0.1,7,2.4,13.9,6.5,19.6h243.3c1.4,0,2.6-1.2,2.6-2.6v-14.4
		C740.5,319.5,739.3,318.3,737.9,318.3z"/>
	<g id="Group_179" transform="translate(569.987 322.318)">
		<path id="Path_19" class="st2" d="M4.7,2.6C5.7,2.5,6.7,3.1,7,4C7.1,3.6,7.4,3.2,7.8,3c0.4-0.3,0.9-0.4,1.5-0.4
			c0.6,0,1.2,0.2,1.7,0.5c0.5,0.5,0.7,1.2,0.7,1.9v5.2c0,0.2,0,0.2-0.1,0.2H9.2c-0.1,0-0.1-0.1-0.1-0.2V6c0-0.3-0.1-0.6-0.2-0.9
			C8.7,4.9,8.4,4.8,8.1,4.8C7.9,4.8,7.7,4.8,7.5,5C7.3,5.1,7.2,5.2,7.1,5.4v4.8c0,0.2,0,0.2-0.1,0.2H4.7c-0.1,0-0.1-0.1-0.1-0.2V6
			c0-0.3-0.1-0.6-0.3-0.9C4.1,4.9,3.9,4.8,3.6,4.8C3.4,4.8,3.1,4.8,2.9,5C2.8,5.1,2.6,5.2,2.6,5.4v4.8c0,0.1,0,0.2-0.1,0.2H0.1
			c-0.1,0-0.1-0.1-0.1-0.2V3c0-0.1,0-0.2,0.1-0.2h2.2c0.1,0,0.1,0.1,0.1,0.2v1C2.6,3.6,2.9,3.2,3.3,3C3.7,2.7,4.2,2.6,4.7,2.6z"/>
		<path id="Path_20" class="st2" d="M17,2.6c0.9,0,1.8,0.3,2.4,0.9c0.7,0.7,1,1.6,1,2.5l0,0.6L20.4,7c0,0.1-0.1,0.2-0.3,0.2h-4.5
			c0,0.4,0.1,0.7,0.4,1c0.3,0.3,0.7,0.4,1.1,0.4c0.3,0,0.6-0.1,0.8-0.2c0.2-0.2,0.4-0.3,0.6-0.6h0.1c0,0,0.1,0,0.1,0.1
			c0,0,0.1,0.1,0.1,0.1l0.4,0.6l0.4,0.7l0.1,0.2c0,0.1-0.1,0.2-0.3,0.4c-0.3,0.2-0.6,0.4-1,0.5c-0.5,0.2-1,0.3-1.6,0.3
			c-1.1,0-2.1-0.3-2.8-1.1c-0.8-0.8-1.2-1.9-1.1-3c0-1.1,0.3-2.1,1.1-2.9C14.9,3,16,2.6,17,2.6z M15.6,5.9h2.5
			c0-0.3-0.1-0.7-0.3-0.9c-0.5-0.5-1.3-0.5-1.8,0C15.7,5.3,15.6,5.6,15.6,5.9z"/>
		<path id="Path_21" class="st2" d="M26.9,3.5V0.2c0-0.1,0-0.2,0.1-0.2h2.3c0.1,0,0.1,0.1,0.1,0.2v10c0,0.2-0.1,0.2-0.2,0.2h-2.1
			c-0.1,0-0.2-0.1-0.2-0.2V9.8c-0.2,0.3-0.5,0.5-0.8,0.6c-0.4,0.1-0.7,0.2-1.1,0.2c-1,0-1.9-0.3-2.6-1c-0.7-0.8-1.1-1.8-1-2.9
			c-0.1-1,0.3-2.1,1-2.8c0.7-0.7,1.6-1.1,2.6-1c0.4,0,0.8,0.1,1.1,0.2C26.4,3,26.7,3.2,26.9,3.5z M27,6.6c0-0.4-0.1-0.8-0.4-1.1
			c-0.3-0.3-0.7-0.5-1.1-0.4c-0.4,0-0.8,0.1-1.1,0.4c-0.3,0.3-0.5,0.7-0.4,1.1c0,0.4,0.1,0.8,0.4,1.2c0.3,0.3,0.7,0.5,1.1,0.5
			c0.4,0,0.8-0.1,1.1-0.4c0.1-0.1,0.2-0.3,0.3-0.5C26.9,7.1,27,6.9,27,6.6L27,6.6z"/>
		<path id="Path_22" class="st2" d="M34,0.2v1.6C34,1.9,34,2,33.9,2h-2.3c-0.1,0-0.1-0.1-0.1-0.2V0.2c0-0.1,0-0.2,0.1-0.2h2.3
			C34,0,34,0.1,34,0.2z M34,3v7.3c0,0.1-0.1,0.2-0.1,0.2h-2.3c-0.1,0-0.1-0.1-0.1-0.2V3c0-0.1,0-0.2,0.1-0.2h2.3
			C33.9,2.8,34,2.9,34,3L34,3z"/>
		<path id="Path_23" class="st2" d="M35.8,8.9c0-0.1,0-0.2,0-0.2l1.6-0.6c0.1,0,0.1,0,0.2,0.2c0.1,0.2,0.2,0.3,0.4,0.5
			c0.2,0.1,0.5,0.2,0.8,0.2c0.3,0,0.5,0,0.7-0.2c0.1-0.1,0.2-0.3,0.2-0.4c0-0.2-0.1-0.4-0.3-0.5c-0.4-0.2-0.9-0.4-1.3-0.4
			C37.6,7.3,37,7,36.5,6.6c-0.4-0.4-0.6-1-0.6-1.6c0-0.7,0.3-1.4,0.9-1.8c0.7-0.5,1.6-0.7,2.5-0.7c0.7,0,1.4,0.1,2,0.4
			c0.5,0.3,0.8,0.7,1,1.2c0,0.1,0,0.2-0.1,0.2L40.5,5c-0.1,0-0.1,0-0.2-0.2c-0.1-0.2-0.2-0.3-0.4-0.4c-0.2-0.1-0.4-0.2-0.7-0.2
			c-0.6,0-0.8,0.2-0.8,0.5c0,0.2,0.1,0.3,0.3,0.4c0.5,0.2,0.9,0.3,1.4,0.4c0.6,0.1,1.2,0.4,1.8,0.8c0.5,0.4,0.7,1,0.7,1.6
			c0,0.8-0.3,1.5-0.9,2c-0.7,0.5-1.6,0.8-2.5,0.8c-0.7,0-1.5-0.1-2.1-0.4C36.5,9.9,36.1,9.5,35.8,8.9z"/>
		<path id="Path_24" class="st2" d="M49.3,7.4l1.9,0.8c0.1,0,0.1,0.2,0.1,0.3C51,9.1,50.6,9.7,50,10.1c-0.6,0.4-1.4,0.6-2.2,0.6
			c-1.1,0-2.1-0.3-2.9-1.1c-0.8-0.8-1.2-1.8-1.1-2.9c0-1.1,0.4-2.1,1.1-2.9c0.7-0.8,1.8-1.2,2.9-1.2c0.8,0,1.5,0.2,2.2,0.6
			c0.6,0.4,1.1,1,1.4,1.7c0,0.1,0,0.2-0.1,0.2l-2,0.8l0,0c0,0-0.1-0.1-0.1-0.2c-0.1-0.2-0.3-0.3-0.5-0.4c-0.2-0.1-0.5-0.2-0.8-0.2
			c-0.4,0-0.8,0.1-1.1,0.4c-0.3,0.3-0.4,0.7-0.4,1.1c0,0.4,0.1,0.8,0.4,1.1c0.3,0.3,0.7,0.4,1.1,0.4c0.3,0,0.5-0.1,0.8-0.2
			c0.2-0.1,0.3-0.2,0.4-0.4C49.1,7.4,49.2,7.4,49.3,7.4z"/>
		<path id="Path_25" class="st2" d="M57.3,5.8c0-0.3-0.1-0.5-0.3-0.7c-0.2-0.2-0.4-0.3-0.7-0.3c-0.2,0-0.5,0.1-0.7,0.2
			c-0.2,0.1-0.3,0.3-0.4,0.5v4.8c0,0.1,0,0.2-0.1,0.2h-2.3c-0.1,0-0.1-0.1-0.1-0.2v-10c0-0.1,0-0.2,0.1-0.2h2.3
			c0.1,0,0.1,0.1,0.1,0.2V4c0.2-0.4,0.5-0.8,0.9-1c0.4-0.3,0.9-0.4,1.4-0.4c1.6,0,2.3,0.8,2.3,2.5v5.1c0,0.2-0.1,0.2-0.2,0.2h-2.3
			c-0.1,0-0.1-0.1-0.1-0.2L57.3,5.8z"/>
		<path id="Path_26" class="st2" d="M65.4,2.6c0.9,0,1.8,0.3,2.4,0.9c0.7,0.7,1,1.6,1,2.5l0,0.6L68.8,7c0,0.1-0.1,0.2-0.3,0.2H64
			c0,0.4,0.1,0.7,0.4,1c0.3,0.3,0.7,0.4,1.1,0.4c0.3,0,0.6-0.1,0.8-0.2c0.2-0.2,0.4-0.3,0.6-0.6H67c0,0,0.1,0,0.1,0.1
			c0,0,0.1,0.1,0.1,0.1l0.4,0.6l0.4,0.7l0.1,0.2c0,0.1-0.1,0.2-0.3,0.4c-0.3,0.2-0.6,0.4-1,0.5c-0.5,0.2-1,0.3-1.6,0.3
			c-1.1,0-2.1-0.3-2.8-1.1c-0.8-0.8-1.2-1.9-1.1-3c0-1.1,0.3-2.1,1.1-2.9C63.3,3,64.4,2.6,65.4,2.6z M64,5.9h2.5
			c0-0.3-0.1-0.7-0.3-0.9c-0.5-0.5-1.3-0.5-1.8,0C64.1,5.3,64,5.6,64,5.9z"/>
		<path id="Path_27" class="st2" d="M81.6,3v4.9c0.1,1.5-0.2,2.9-1,4.2c-0.8,0.9-2,1.4-3.2,1.2c-0.5,0-1-0.1-1.5-0.2
			c-0.4-0.1-0.8-0.3-1.2-0.4l-0.4-0.2v-0.1l0.3-0.8l0.3-0.9c0-0.1,0-0.1,0.1-0.2c0,0,0-0.1,0.1-0.1l0.3,0.1c0.1,0.1,0.2,0.1,0.3,0.1
			l0.5,0.2c0.3,0.1,0.7,0.2,1,0.2c0.5,0.1,1.1-0.1,1.5-0.4c0.3-0.4,0.5-1,0.4-1.5c-0.2,0.3-0.5,0.6-0.8,0.7
			c-0.4,0.2-0.8,0.2-1.2,0.2c-0.9,0-1.8-0.3-2.5-0.9c-0.7-0.7-1-1.7-0.9-2.7c-0.1-1,0.3-2,1-2.7c0.7-0.7,1.6-1,2.5-1
			c0.4,0,0.8,0.1,1.2,0.2c0.3,0.1,0.6,0.3,0.9,0.6V3c0-0.1,0-0.2,0.1-0.2h2.3l0.1,0L81.6,3z M77.5,5c-0.4,0-0.8,0.2-1.1,0.4
			c-0.6,0.6-0.6,1.6,0,2.2c0.1,0.1,0.3,0.2,0.5,0.3c0.2,0.1,0.4,0.1,0.6,0.1c0.4,0,0.8-0.1,1.1-0.4c0.3-0.3,0.5-0.7,0.4-1.1
			c0-0.4-0.1-0.8-0.4-1.1C78.3,5.2,78,5,77.5,5L77.5,5z"/>
		<path id="Path_28" class="st2" d="M87.1,5.1c-0.2,0-0.4,0.1-0.5,0.2c-0.2,0.1-0.3,0.2-0.4,0.4v4.6c0,0.1,0,0.2-0.1,0.2h-2.3
			c-0.1,0-0.1-0.1-0.1-0.2V2.8l0.1,0H86c0.1,0,0.1,0.1,0.1,0.2v0.7c0.2-0.3,0.4-0.6,0.8-0.8c0.8-0.5,1.7-0.4,2.4,0.2
			c0.4,0.4,0.6,0.9,0.5,1.4L88.3,6l-0.1,0.1l-0.2,0C87.9,5.4,87.6,5.1,87.1,5.1z"/>
		<path id="Path_29" class="st2" d="M94.7,2.6c2.3-0.1,4.2,1.7,4.2,4c0.1,2.3-1.7,4.2-4,4.2s-4.2-1.7-4.2-4c0-0.1,0-0.1,0-0.2
			c0-1.1,0.4-2.1,1.1-2.9C92.6,3,93.6,2.5,94.7,2.6z M94.7,5c-0.4,0-0.8,0.2-1.1,0.5c-0.3,0.3-0.5,0.7-0.4,1.2
			c0,0.4,0.1,0.9,0.4,1.2c0.3,0.3,0.7,0.5,1.1,0.5c0.4,0,0.8-0.2,1.1-0.5c0.3-0.3,0.4-0.8,0.4-1.2c0-0.4-0.1-0.9-0.4-1.2
			C95.5,5.2,95.1,5,94.7,5z"/>
		<path id="Path_30" class="st2" d="M103.9,2.6c2.3-0.1,4.2,1.7,4.2,4s-1.7,4.2-4,4.2s-4.2-1.7-4.2-4c0-0.1,0-0.1,0-0.2
			c0-1.1,0.4-2.1,1.1-2.9C101.8,3,102.8,2.5,103.9,2.6z M103.9,5c-0.4,0-0.8,0.2-1.1,0.5c-0.3,0.3-0.5,0.7-0.4,1.2
			c0,0.4,0.1,0.9,0.4,1.2c0.3,0.3,0.7,0.5,1.1,0.5c0.4,0,0.8-0.2,1.1-0.5c0.3-0.3,0.5-0.8,0.4-1.2c0-0.4-0.1-0.9-0.4-1.2
			C104.7,5.2,104.3,5,103.9,5L103.9,5z"/>
		<path id="Path_31" class="st2" d="M112.3,4.8v2.8c-0.1,0.4,0.2,0.8,0.7,0.9c0.1,0,0.1,0,0.2,0l0.4,0c0.1,0,0.2,0,0.3,0.1
			c0,0,0,0,0,0l0.2,1.4c0,0.1-0.1,0.2-0.3,0.3c-0.2,0.1-0.5,0.2-0.7,0.2c-0.2,0.1-0.5,0.1-0.7,0.1c-1.1,0-1.8-0.3-2.2-0.9
			c-0.3-0.7-0.5-1.6-0.5-2.4V4.8h-0.6c-0.1,0-0.2-0.1-0.2-0.2V3c0-0.1,0-0.2,0.1-0.2h0.7l0-1.9c0-0.1,0-0.2,0.1-0.2h2.1
			c0.1,0,0.1,0,0.2,0.1c0.1,0,0.1,0.1,0.1,0.2v1.8h1.3c0.1,0,0.1,0,0.1,0.1c0,0,0,0,0,0v1.6c0,0.1-0.1,0.2-0.2,0.2H112.3z"/>
		<path id="Path_32" class="st2" d="M120.2,5.8c0-0.3-0.1-0.5-0.3-0.7c-0.2-0.2-0.4-0.3-0.7-0.3c-0.2,0-0.5,0.1-0.7,0.2
			c-0.2,0.1-0.3,0.3-0.4,0.5v4.8c0,0.1,0,0.2-0.1,0.2h-2.3c-0.1,0-0.1-0.1-0.1-0.2v-10c0-0.1,0-0.2,0.1-0.2h2.3
			c0.1,0,0.1,0.1,0.1,0.2V4c0.2-0.4,0.5-0.8,0.9-1c0.4-0.3,0.9-0.4,1.4-0.4c1.6,0,2.3,0.8,2.3,2.5v5.1c0,0.2-0.1,0.2-0.2,0.2h-2.3
			c-0.1,0-0.1-0.1-0.1-0.2L120.2,5.8z"/>
		<path id="Path_33" class="st2" d="M130,10.3V9.3c-0.1,0.4-0.4,0.7-0.8,0.9c-0.4,0.2-0.9,0.3-1.3,0.3c-1,0-1.9-0.4-2.5-1.1
			c-1.3-1.6-1.3-4,0-5.6c0.6-0.7,1.5-1.1,2.5-1.1c0.5,0,0.9,0.1,1.3,0.3c0.3,0.2,0.6,0.5,0.7,0.9V3c0-0.1,0-0.2,0.1-0.2h2.3
			c0.1,0,0.1,0,0.1,0.1v7.2c0,0.1,0,0.2-0.1,0.2h-2.1C130.1,10.4,130,10.3,130,10.3z M128.4,5.1c-0.4,0-0.8,0.2-1.1,0.5
			c-0.3,0.3-0.4,0.7-0.4,1.2c0,0.4,0.1,0.8,0.4,1.1c0.6,0.6,1.5,0.6,2.1,0c0.3-0.3,0.4-0.7,0.4-1.2c0-0.4-0.1-0.8-0.4-1.1
			C129.2,5.2,128.8,5,128.4,5.1L128.4,5.1z"/>
		<path id="Path_34" class="st2" d="M139.1,5.8c0-0.3-0.1-0.5-0.3-0.7c-0.2-0.2-0.4-0.3-0.7-0.3c-0.2,0-0.5,0.1-0.7,0.2
			c-0.2,0.1-0.3,0.3-0.4,0.5v4.8c0,0.1,0,0.2-0.1,0.2h-2.4c-0.1,0-0.1-0.1-0.1-0.2V3c0-0.1,0-0.2,0.1-0.2h2.2c0.1,0,0.2,0.1,0.2,0.2
			v1c0.2-0.4,0.5-0.8,0.9-1c0.4-0.3,1-0.4,1.5-0.4c1.6,0,2.3,0.8,2.3,2.5v5.1c0,0.2-0.1,0.2-0.2,0.2h-2.3c-0.1,0-0.1-0.1-0.1-0.2
			L139.1,5.8z"/>
		<path id="Path_35" class="st2" d="M148.7,3.5V0.2c0-0.1,0-0.2,0.1-0.2h2.3c0.1,0,0.1,0.1,0.1,0.2v10c0,0.2-0.1,0.2-0.2,0.2H149
			c-0.1,0-0.2-0.1-0.2-0.2V9.8c-0.2,0.3-0.5,0.5-0.8,0.6c-0.4,0.1-0.7,0.2-1.1,0.2c-1,0-1.9-0.3-2.6-1c-0.7-0.8-1.1-1.8-1-2.9
			c-0.1-1,0.3-2.1,1-2.8c0.7-0.7,1.6-1.1,2.6-1c0.4,0,0.8,0.1,1.1,0.2C148.2,3,148.5,3.2,148.7,3.5z M148.8,6.6
			c0-0.4-0.1-0.8-0.4-1.1c-0.3-0.3-0.7-0.5-1.1-0.4c-0.4,0-0.8,0.1-1.1,0.4c-0.3,0.3-0.5,0.7-0.4,1.1c0,0.4,0.1,0.8,0.4,1.2
			c0.3,0.3,0.7,0.5,1.1,0.5c0.4,0,0.8-0.1,1.1-0.4c0.1-0.1,0.2-0.3,0.3-0.5C148.8,7.1,148.8,6.9,148.8,6.6L148.8,6.6z"/>
		<path id="Path_36" class="st2" d="M156.8,2.6c0.9,0,1.8,0.3,2.4,0.9c0.7,0.7,1,1.6,1,2.5l0,0.6L160.1,7c0,0.1-0.1,0.2-0.3,0.2
			h-4.5c0,0.4,0.1,0.7,0.4,1c0.3,0.3,0.7,0.4,1.1,0.4c0.3,0,0.6-0.1,0.8-0.2c0.2-0.2,0.4-0.3,0.6-0.6h0.1c0,0,0.1,0,0.1,0.1
			c0,0,0.1,0.1,0.1,0.1l0.4,0.6l0.4,0.7l0.1,0.2c0,0.1-0.1,0.2-0.3,0.4c-0.3,0.2-0.6,0.4-1,0.5c-0.5,0.2-1,0.3-1.6,0.3
			c-1.1,0-2.1-0.3-2.8-1.1c-0.8-0.8-1.2-1.9-1.1-3c0-1.1,0.3-2.1,1.1-2.9C154.7,3,155.7,2.6,156.8,2.6z M155.3,5.9h2.5
			c0-0.3-0.1-0.7-0.3-0.9c-0.5-0.5-1.3-0.5-1.8,0C155.5,5.3,155.3,5.6,155.3,5.9z"/>
		<path id="Path_37" class="st2" d="M164.2,0.2v10.1c0,0.1,0,0.2-0.1,0.2h-2.3c-0.1,0-0.1-0.1-0.1-0.2V0h2.4
			C164.1,0,164.2,0.1,164.2,0.2z"/>
	</g>
	<g id="Group_181" transform="translate(569.949 289.29)">
		<g id="Group_180">
			<path id="Path_38" class="st1" d="M5.3,21.3h-5c-0.1,0-0.2-0.1-0.2-0.4V0.4H14L14,0.7l0,1.4l0,1.5l0,0.8c0,0.2,0,0.4-0.1,0.5
				l0,0.3H5.6v4.2l7.3-0.1c0.2,0,0.4,0.1,0.4,0.4c0,0,0,0,0,0v4.1c0,0.2-0.1,0.3-0.4,0.3H5.6v6.8C5.6,21.1,5.5,21.3,5.3,21.3z"/>
			<path id="Path_39" class="st1" d="M18.5,16.1v4.5c0,0.5-0.2,0.7-0.6,0.7h-4.3c-0.4,0-0.6-0.2-0.6-0.6v-4.3c0-0.5,0.2-0.8,0.6-0.8
				H18C18.3,15.6,18.5,15.8,18.5,16.1z"/>
			<path id="Path_40" class="st1" d="M43,6.2l-7.7,15.3c-0.1,0.2-0.3,0.3-0.5,0.3c-0.2,0-0.4-0.1-0.5-0.3L26.6,6.3l-0.2-0.4
				c0.1-0.1,0.2-0.1,0.3-0.1H32c0.2,0,0.3,0.1,0.3,0.2l2.6,7l1.1-3l1-3c0.2-0.8,0.5-1.2,0.6-1.2H43C43,5.9,43,6.1,43,6.2z"/>
			<path id="Path_41" class="st1" d="M54.5,7.2V0.4c0-0.2,0.1-0.4,0.3-0.4h4.6c0.1,0,0.2,0.1,0.2,0.4v20.4c0,0.3-0.1,0.5-0.3,0.5H55
				c-0.2,0-0.3-0.2-0.3-0.5v-0.9c-0.4,0.5-1,0.9-1.6,1.2c-0.7,0.3-1.5,0.4-2.3,0.4c-2,0.1-4-0.7-5.4-2.1c-2.7-3.4-2.7-8.3,0-11.7
				c1.4-1.4,3.3-2.2,5.2-2.1c0.8,0,1.6,0.2,2.3,0.4C53.5,6.2,54.1,6.6,54.5,7.2z M54.6,13.6c0-0.9-0.3-1.7-0.9-2.3
				c-0.6-0.6-1.4-0.9-2.2-0.9c-0.8,0-1.6,0.3-2.2,0.9c-0.6,0.6-0.9,1.5-0.9,2.3c0,0.9,0.3,1.7,0.9,2.4c0.6,0.6,1.4,0.9,2.3,0.9
				c0.8,0,1.6-0.3,2.2-0.9c0.3-0.3,0.5-0.6,0.7-1C54.6,14.5,54.7,14,54.6,13.6L54.6,13.6z"/>
			<path id="Path_42" class="st1" d="M87.7,1l-9.6,20.4c-0.1,0.2-0.3,0.4-0.5,0.4c-0.2,0-0.8-1-1.8-3l-3.7-7.5l-3.7-7.7l-1.5-3.2
				c0.1-0.1,0.2-0.1,0.3-0.1h5.2c0.3,0,0.5,0.2,0.7,0.7l1.4,3.4l2.1,5.1l1.1,2.4l1-2.6l1.8-4.8l1.4-3.8c0.1-0.3,0.4-0.4,0.7-0.4h4.8
				c0.2,0,0.3,0.1,0.3,0.2L87.7,1z"/>
			<path id="Path_43" class="st1" d="M92.9,5.3c4.6-0.1,8.5,3.5,8.7,8.2c0.1,4.6-3.5,8.5-8.2,8.7c-4.6,0.1-8.5-3.5-8.7-8.2
				c0-0.1,0-0.3,0-0.4c-0.1-2.2,0.7-4.3,2.3-5.9C88.5,6.1,90.7,5.2,92.9,5.3z M92.9,10.2c-0.8,0-1.6,0.3-2.2,0.9
				c-0.6,0.6-0.9,1.5-0.9,2.4c0,0.9,0.3,1.8,0.9,2.4c0.6,0.6,1.4,1,2.2,1c0.8,0,1.6-0.3,2.2-0.9c0.6-0.7,0.9-1.5,0.9-2.4
				c0-0.9-0.3-1.7-0.9-2.4C94.5,10.6,93.7,10.2,92.9,10.2L92.9,10.2z"/>
			<path id="Path_44" class="st1" d="M110.5,5.3c4.6-0.1,8.5,3.5,8.7,8.2c0.1,4.6-3.5,8.5-8.2,8.7c-4.6,0.1-8.5-3.5-8.7-8.2
				c0-0.1,0-0.3,0-0.4c-0.1-2.2,0.7-4.3,2.3-5.9C106.1,6.1,108.3,5.2,110.5,5.3z M110.5,10.2c-0.8,0-1.6,0.3-2.2,0.9
				c-0.6,0.6-0.9,1.5-0.9,2.4c0,0.9,0.3,1.8,0.9,2.4c0.6,0.6,1.4,1,2.2,1c0.8,0,1.6-0.3,2.2-0.9c0.6-0.7,0.9-1.5,0.9-2.4
				c0-0.9-0.3-1.7-0.9-2.4C112.2,10.6,111.4,10.2,110.5,10.2z"/>
			<path id="Path_45" class="st1" d="M127.9,10.3c-0.4,0-0.8,0.1-1.1,0.3c-0.3,0.2-0.6,0.5-0.8,0.8V21c0,0.2-0.1,0.3-0.2,0.3h-4.7
				c-0.1,0-0.2-0.1-0.2-0.4V5.8l0.2-0.1h4.6c0.1,0,0.2,0.1,0.2,0.4v1.5c0.3-0.7,0.9-1.3,1.5-1.7c0.6-0.4,1.4-0.6,2.2-0.6
				c1-0.1,2,0.3,2.8,0.9c0.8,0.7,1.1,1.7,1.1,2.8l-3.2,3.3l-0.3,0.1l-0.5,0C129.6,11,129,10.3,127.9,10.3z"/>
			<path id="Path_46" class="st1" d="M142.1,5.4c1.8-0.1,3.6,0.6,5,1.9c1.4,1.3,2.1,3.2,2,5.1l0,1.3l-0.1,0.8
				c-0.1,0.3-0.3,0.4-0.7,0.4h-9.2c0,0.8,0.3,1.5,0.9,2c0.6,0.5,1.4,0.8,2.3,0.7c0.6,0,1.2-0.1,1.7-0.4c0.5-0.3,0.9-0.7,1.3-1.1h0.2
				c0.1,0,0.1,0.1,0.2,0.1c0.1,0.1,0.1,0.1,0.2,0.2l0.9,1.3l0.9,1.3l0.2,0.5c0,0.1-0.2,0.4-0.5,0.7c-0.6,0.4-1.3,0.7-2,1
				c-1,0.4-2.1,0.6-3.2,0.6c-2.2,0.1-4.3-0.7-5.8-2.2c-1.6-1.6-2.4-3.9-2.2-6.1c-0.1-2.2,0.7-4.3,2.2-5.8
				C137.8,6.1,139.9,5.2,142.1,5.4z M139.1,12.1h5.2c0-0.7-0.2-1.4-0.7-1.9c-1.1-1-2.7-1-3.7,0C139.4,10.8,139.2,11.5,139.1,12.1z"
				/>
			<path id="Path_47" class="st1" d="M160.2,11.8c0-0.6-0.2-1.1-0.5-1.5c-0.4-0.4-0.9-0.6-1.4-0.5c-0.5,0-1,0.1-1.4,0.4
				c-0.4,0.3-0.7,0.7-0.9,1.1V21c0,0.2-0.1,0.3-0.2,0.3H151c-0.1,0-0.2-0.1-0.3-0.4V6.1c0-0.2,0.1-0.4,0.2-0.4h4.5
				c0.2,0,0.3,0.2,0.3,0.5v2c0.3-0.9,0.9-1.7,1.8-2.1c0.9-0.5,2-0.8,3-0.8c3.2,0,4.8,1.7,4.8,5.1v10.5c0,0.3-0.1,0.5-0.3,0.5h-4.7
				c-0.1,0-0.2-0.1-0.2-0.3V11.8z"/>
		</g>
	</g>
	<path id="Path_48" class="st2" d="M533,350.4c-1.3,0.8-2.6,1.3-4.1,1.6c-19.1,3.2-37.1-9.7-40.3-28.8s9.7-37.1,28.8-40.3
		c18.3-3,35.8,8.8,39.9,26.9h0c0.2,0.7,1,1.1,1.7,0.8c0.5-0.2,0.9-0.7,0.9-1.3c0,0,0-0.1,0-0.1l0,0c0-3.1-0.2-6.2-0.6-9.3
		c-4.8-22.2-20.5-30.9-24.4-32.7c-5.6-2.6-11.8-4-18-4.1c-26.1,0-50.1,21.7-50.1,47.8c0,12.8,7.3,28.2,15.6,36.7l0.8,0.7
		c0.2,0.2,0.5,0.5,0.3,0.9c-0.1,0.1-0.3,0.2-0.4,0.2c-0.3,0-0.6-0.1-0.8-0.3l0,0l0,0c0,0-0.1-0.1-0.1-0.1c-11-9.2-17-23.2-18-38.5
		c0-27.8,23.4-49.5,50.3-50.3c6.3,0,12.5,1.2,18.4,3.5c2.4,1,2.8,0.3,0.6-1c-8-4.7-17-7.3-26.3-7.4c-4.5,0-20.8,0.9-33.8,13.6
		c-2,2-3.8,4.2-5.5,6.5c-0.1,0.2-0.3,0.4-0.4,0.6c-6.3,9-9.7,19.8-9.7,30.8c-0.4,9.4,3,20.4,4.3,23.8c0.2,0.6,0.9,1.2,0.1,1.7
		c-0.6,0.1-0.8-0.2-1.1-0.6h0c-4.5-7.8-6-17.3-6-26.9c0-5.9,0.9-11.7,2.8-17.3c0.4-1.1,0-1.2,0-1.2s-0.4-0.1-0.8,1
		c-12.1,27.2,0.1,59,27.3,71.1c11.5,5.1,24.4,6,36.4,2.7c9.4-2.7,13-6,13.9-6.9c0.1-0.1,0.2-0.2,0.2-0.2l0,0c1.1,2,0.5,5.4,0,8.7
		l0,0c0.2,0.7,1,1,1.7,0.8c0.4-0.1,0.7-0.4,0.8-0.8h0l9.8-16.7l0,0c0.1-0.1,0.1-0.3,0.2-0.4c0.1-0.7-0.3-1.4-1.1-1.5c0,0,0,0,0,0
		L529,344c-2.3,0-2.7,0.1-2.9,0.9c0,0.8,1.3,1,1.6,1.2C529.9,346.9,531.7,348.4,533,350.4L533,350.4z M556,297.9
		c-0.1,0-0.1-0.1-0.3-0.3c-10.6-16.1-31.5-27.7-53.3-17.1c-18.9,9.5-25.9,35.3-16.4,54.2c4.7,9.3,14.1,15.6,23.2,18.7
		c0.5,0.1,0.9,0.3,1.3,0.6c0.2,0.2,0.3,0.4,0,0.6c-0.2,0.1-0.4,0.1-0.6,0.1l0,0l0,0c0,0-0.1,0-0.1,0c-22-5.1-35.6-27.1-30.5-49.1
		c2.8-11.8,10.6-21.7,21.4-27.1c19.9-10.1,46.5-1.9,55.3,19.2C556.1,297.7,556.1,297.9,556,297.9L556,297.9z"/>
</g>
</svg>
