<?xml version="1.0" standalone="no"?>
<!DOCTYPE svg PUBLIC "-//W3C//DTD SVG 1.1//EN" "http://www.w3.org/Graphics/SVG/1.1/DTD/svg11.dtd">
<svg xmlns="http://www.w3.org/2000/svg" xmlns:xlink="http://www.w3.org/1999/xlink" width="135" zoomAndPan="magnify" viewBox="0 0 135 49.499998" height="49.499996185302734" preserveAspectRatio="xMidYMid meet" version="1.0"><defs><clipPath id="7697e2087d"><path d="M 88 11.136719 L 121 11.136719 L 121 28 L 88 28 Z M 88 11.136719 " clip-rule="nonzero"/></clipPath><clipPath id="3a08d9e1f5"><path d="M 74 28 L 82 28 L 82 37.867188 L 74 37.867188 Z M 74 28 " clip-rule="nonzero"/></clipPath><clipPath id="c27e1ae02d"><path d="M 83 28 L 91 28 L 91 37.867188 L 83 37.867188 Z M 83 28 " clip-rule="nonzero"/></clipPath><clipPath id="d8692404ec"><path d="M 101 28 L 109 28 L 109 37.867188 L 101 37.867188 Z M 101 28 " clip-rule="nonzero"/></clipPath><clipPath id="bc646d6679"><path d="M 110 28 L 116 28 L 116 37.867188 L 110 37.867188 Z M 110 28 " clip-rule="nonzero"/></clipPath><clipPath id="cd3802aecb"><path d="M 120 28 L 128 28 L 128 37.867188 L 120 37.867188 Z M 120 28 " clip-rule="nonzero"/></clipPath><clipPath id="9349a55ebe"><path d="M 0.675781 28 L 8 28 L 8 37.867188 L 0.675781 37.867188 Z M 0.675781 28 " clip-rule="nonzero"/></clipPath><clipPath id="ed2dca3f7e"><path d="M 8 28 L 16 28 L 16 37.867188 L 8 37.867188 Z M 8 28 " clip-rule="nonzero"/></clipPath><clipPath id="9d75625fb5"><path d="M 17 28 L 25 28 L 25 37.867188 L 17 37.867188 Z M 17 28 " clip-rule="nonzero"/></clipPath><clipPath id="49905b9baa"><path d="M 25 28 L 32 28 L 32 37.867188 L 25 37.867188 Z M 25 28 " clip-rule="nonzero"/></clipPath><clipPath id="695e422226"><path d="M 32 28 L 39 28 L 39 37.867188 L 32 37.867188 Z M 32 28 " clip-rule="nonzero"/></clipPath><clipPath id="833a52c3d9"><path d="M 39 28 L 47 28 L 47 37.867188 L 39 37.867188 Z M 39 28 " clip-rule="nonzero"/></clipPath><clipPath id="25c785b987"><path d="M 47 28 L 55 28 L 55 37.867188 L 47 37.867188 Z M 47 28 " clip-rule="nonzero"/></clipPath><clipPath id="3bf120ff9b"><path d="M 55 28 L 63 28 L 63 37.867188 L 55 37.867188 Z M 55 28 " clip-rule="nonzero"/></clipPath><clipPath id="1d0ad19994"><path d="M 63 28 L 70 28 L 70 37.867188 L 63 37.867188 Z M 63 28 " clip-rule="nonzero"/></clipPath><clipPath id="e3d6113563"><path d="M 91 28 L 97 28 L 97 37.867188 L 91 37.867188 Z M 91 28 " clip-rule="nonzero"/></clipPath><clipPath id="a3736fa098"><path d="M 98 28 L 101 28 L 101 37.867188 L 98 37.867188 Z M 98 28 " clip-rule="nonzero"/></clipPath><clipPath id="61689bdd7f"><path d="M 129 28 L 134.324219 28 L 134.324219 37.867188 L 129 37.867188 Z M 129 28 " clip-rule="nonzero"/></clipPath><clipPath id="5f59743028"><path d="M 117 35 L 120 35 L 120 37.867188 L 117 37.867188 Z M 117 35 " clip-rule="nonzero"/></clipPath></defs><g clip-path="url(#7697e2087d)"><path fill="#004f44" d="M 107.304688 13.375 C 106.355469 14.308594 105.164062 15.570312 104.644531 16.175781 C 104.113281 16.792969 103.597656 17.296875 103.46875 17.296875 C 103.339844 17.296875 102.792969 16.894531 102.230469 16.417969 C 100.292969 14.738281 99.558594 14.21875 99.300781 14.378906 C 98.886719 14.636719 98.984375 14.925781 99.90625 16.160156 C 101.070312 17.699219 102.015625 19.105469 102.015625 19.277344 C 102.015625 19.351562 101.527344 20.140625 100.925781 21.015625 C 100.046875 22.308594 99.847656 22.699219 99.917969 22.984375 C 100.078125 23.617188 100.523438 23.34375 101.414062 22.050781 C 102.433594 20.558594 102.648438 20.398438 103.035156 20.875 C 103.554688 21.503906 103.511719 21.734375 102.363281 24.449219 C 101.097656 27.410156 101.011719 27.480469 100.25 26.402344 C 98.050781 23.230469 95.984375 20.773438 93.453125 18.285156 C 91.628906 16.503906 89.273438 14.492188 88.828125 14.320312 C 88.628906 14.234375 88.226562 14.523438 88.226562 14.765625 C 88.226562 14.851562 88.8125 15.699219 89.519531 16.648438 C 91.558594 19.378906 93.828125 23.402344 95.191406 26.664062 C 95.582031 27.597656 95.625 27.640625 96.082031 27.640625 C 96.34375 27.640625 96.558594 27.597656 96.558594 27.554688 C 96.558594 27.324219 95.410156 24.765625 94.386719 22.742188 C 93.253906 20.457031 93.152344 20.070312 93.769531 20.199219 C 94.246094 20.285156 97.550781 24.21875 99.171875 26.589844 L 99.875 27.640625 L 102.101562 27.640625 L 102.964844 25.511719 C 104.128906 22.640625 104.199219 22.65625 105.636719 25.988281 C 106.3125 27.539062 106.328125 27.566406 106.828125 27.609375 C 107.101562 27.640625 107.332031 27.625 107.332031 27.582031 C 107.332031 27.367188 105.738281 23.832031 104.949219 22.339844 C 104.429688 21.347656 104.058594 20.457031 104.085938 20.355469 C 104.257812 19.910156 104.761719 20.210938 105.796875 21.375 C 107.144531 22.882812 108.738281 24.894531 109.832031 26.449219 C 110.621094 27.597656 110.679688 27.640625 111.226562 27.640625 L 111.800781 27.640625 L 111.269531 26.804688 C 110.980469 26.359375 110.621094 25.828125 110.480469 25.644531 C 110.320312 25.457031 110.207031 25.183594 110.207031 25.023438 C 110.207031 24.550781 112.578125 20.972656 114.429688 18.617188 C 115.105469 17.769531 115.535156 17.539062 115.738281 17.882812 C 115.792969 17.957031 115.191406 19.40625 114.402344 21.074219 C 112.359375 25.441406 112.21875 25.914062 112.90625 25.914062 C 113.28125 25.914062 113.324219 25.84375 114.300781 23.617188 C 115.550781 20.773438 117.445312 17.109375 119.027344 14.449219 C 119.800781 13.15625 120.390625 12.007812 120.347656 11.894531 C 120.304688 11.777344 120.105469 11.691406 119.890625 11.691406 C 119.601562 11.691406 119.042969 12.167969 117.332031 13.890625 C 114.902344 16.347656 113.164062 18.488281 111.023438 21.707031 C 110.21875 22.914062 109.5 23.90625 109.402344 23.90625 C 109.316406 23.90625 108.710938 23.257812 108.078125 22.480469 C 107.433594 21.691406 106.371094 20.484375 105.722656 19.808594 C 105.0625 19.121094 104.488281 18.445312 104.445312 18.316406 C 104.34375 18.070312 105.0625 17.035156 105.4375 16.894531 C 105.566406 16.851562 105.78125 16.980469 105.980469 17.222656 C 106.371094 17.710938 106.65625 17.640625 107.015625 16.992188 C 107.144531 16.734375 107.851562 15.542969 108.582031 14.320312 C 109.328125 13.085938 109.875 12.023438 109.816406 11.90625 C 109.773438 11.792969 109.574219 11.691406 109.371094 11.691406 C 109.097656 11.691406 108.582031 12.109375 107.304688 13.375 Z M 107.304688 13.375 " fill-opacity="1" fill-rule="nonzero"/></g><path fill="#004f44" d="M 127.90625 18.976562 C 126.65625 20.226562 125.203125 21.792969 124.6875 22.46875 C 123.636719 23.832031 121.269531 27.339844 121.269531 27.523438 C 121.269531 27.582031 121.511719 27.640625 121.8125 27.640625 C 122.332031 27.640625 122.375 27.597656 123.105469 26.449219 C 124.226562 24.679688 125.765625 22.699219 126.050781 22.640625 C 126.582031 22.539062 126.453125 23.101562 125.449219 25.253906 C 124.886719 26.476562 124.429688 27.511719 124.429688 27.554688 C 124.429688 27.597656 124.644531 27.640625 124.917969 27.640625 L 125.40625 27.640625 L 126.984375 24.4375 C 127.847656 22.683594 129.082031 20.371094 129.730469 19.308594 C 130.9375 17.308594 131.082031 16.835938 130.492188 16.75 C 130.234375 16.707031 129.6875 17.179688 127.90625 18.976562 Z M 127.90625 18.976562 " fill-opacity="1" fill-rule="nonzero"/><path fill="#004f44" d="M 79.132812 19.40625 C 78.902344 19.636719 79.074219 20.054688 79.804688 20.972656 C 80.726562 22.164062 82.320312 24.667969 83.253906 26.375 C 83.914062 27.582031 83.957031 27.640625 84.433594 27.640625 C 84.707031 27.640625 84.921875 27.609375 84.921875 27.566406 C 84.921875 27.523438 84.734375 27.109375 84.488281 26.632812 C 83.988281 25.628906 83.945312 25.195312 84.332031 25.195312 C 84.574219 25.195312 85.496094 26.117188 86.457031 27.324219 C 86.671875 27.597656 86.832031 27.65625 87.335938 27.609375 L 87.953125 27.566406 L 86.773438 26.132812 C 85.238281 24.265625 82.449219 21.492188 80.898438 20.269531 C 79.761719 19.363281 79.359375 19.175781 79.132812 19.40625 Z M 79.132812 19.40625 " fill-opacity="1" fill-rule="nonzero"/><g clip-path="url(#3a08d9e1f5)"><path fill="#004f44" d="M 77.351562 28.789062 C 75.4375 29.175781 74.71875 30.414062 74.71875 33.316406 C 74.71875 35.414062 74.949219 36.175781 75.785156 36.949219 C 76.558594 37.667969 77.335938 37.898438 78.640625 37.796875 C 79.9375 37.710938 80.8125 37.195312 81.316406 36.1875 C 81.675781 35.511719 81.6875 35.355469 81.6875 33.242188 C 81.6875 31.21875 81.660156 30.957031 81.371094 30.414062 C 81.027344 29.792969 80.367188 29.191406 79.75 28.960938 C 79.175781 28.746094 77.996094 28.660156 77.351562 28.789062 Z M 78.945312 30.671875 C 79.546875 30.957031 79.777344 31.820312 79.71875 33.574219 C 79.691406 34.839844 79.621094 35.152344 79.375 35.484375 C 78.828125 36.21875 77.664062 36.246094 77.132812 35.527344 C 76.804688 35.097656 76.644531 33.414062 76.804688 32.164062 C 76.976562 30.785156 77.851562 30.183594 78.945312 30.671875 Z M 78.945312 30.671875 " fill-opacity="1" fill-rule="nonzero"/></g><g clip-path="url(#c27e1ae02d)"><path fill="#004f44" d="M 84.921875 28.789062 C 83.871094 28.890625 83.527344 28.960938 83.382812 29.164062 C 83.238281 29.363281 83.195312 30.3125 83.226562 33.53125 L 83.269531 37.625 L 84.1875 37.667969 C 84.835938 37.695312 85.152344 37.652344 85.222656 37.523438 C 85.292969 37.425781 85.351562 35.800781 85.351562 33.917969 L 85.351562 30.511719 L 86.355469 30.511719 C 87.25 30.511719 87.421875 30.554688 87.722656 30.871094 L 88.082031 31.21875 L 88.082031 37.695312 L 90.09375 37.695312 L 90.09375 34.277344 C 90.09375 31.289062 90.050781 30.800781 89.820312 30.296875 C 89.675781 29.980469 89.433594 29.609375 89.289062 29.480469 C 88.554688 28.832031 87.160156 28.617188 84.921875 28.789062 Z M 84.921875 28.789062 " fill-opacity="1" fill-rule="nonzero"/></g><g clip-path="url(#d8692404ec)"><path fill="#004f44" d="M 103.382812 28.789062 C 102.40625 28.890625 102.058594 28.976562 101.917969 29.164062 C 101.773438 29.363281 101.730469 30.339844 101.757812 33.53125 L 101.800781 37.625 L 103.8125 37.625 L 103.855469 34.0625 L 103.886719 30.511719 L 104.90625 30.511719 C 105.78125 30.511719 105.953125 30.554688 106.253906 30.871094 L 106.613281 31.21875 L 106.613281 37.710938 L 107.664062 37.667969 L 108.699219 37.625 L 108.699219 34.320312 C 108.699219 30.828125 108.625 30.398438 107.992188 29.664062 C 107.289062 28.875 105.753906 28.574219 103.382812 28.789062 Z M 103.382812 28.789062 " fill-opacity="1" fill-rule="nonzero"/></g><g clip-path="url(#bc646d6679)"><path fill="#004f44" d="M 112.316406 28.789062 C 111.382812 28.945312 110.953125 29.265625 110.609375 30.023438 C 110.347656 30.613281 110.335938 30.929688 110.378906 33.53125 C 110.421875 36.144531 110.449219 36.417969 110.722656 36.777344 C 111.324219 37.597656 111.683594 37.753906 113.152344 37.8125 C 113.898438 37.839844 114.804688 37.828125 115.164062 37.785156 L 115.808594 37.683594 L 115.808594 36.117188 L 114.34375 36.117188 C 113.523438 36.117188 112.761719 36.046875 112.648438 35.972656 C 112.503906 35.886719 112.433594 35.585938 112.433594 34.9375 L 112.433594 34.035156 L 114.011719 33.992188 C 115.679688 33.945312 115.808594 33.890625 115.808594 33.214844 C 115.808594 32.394531 115.765625 32.382812 114 32.382812 L 112.359375 32.382812 L 112.359375 31.691406 C 112.359375 30.597656 112.476562 30.527344 114.230469 30.484375 L 115.738281 30.441406 L 115.78125 29.695312 C 115.824219 29.003906 115.792969 28.933594 115.492188 28.875 C 114.773438 28.71875 112.980469 28.675781 112.316406 28.789062 Z M 112.316406 28.789062 " fill-opacity="1" fill-rule="nonzero"/></g><g clip-path="url(#cd3802aecb)"><path fill="#004f44" d="M 122.246094 28.789062 C 121.554688 28.863281 120.921875 28.945312 120.835938 29.003906 C 120.75 29.0625 120.695312 30.554688 120.695312 33.402344 L 120.695312 37.695312 L 122.703125 37.695312 L 122.703125 30.511719 L 123.753906 30.511719 C 125.476562 30.511719 125.492188 30.554688 125.535156 34.464844 C 125.550781 36.128906 125.578125 37.523438 125.578125 37.582031 C 125.578125 37.652344 126.039062 37.695312 126.597656 37.695312 L 127.617188 37.695312 L 127.558594 34.277344 C 127.503906 30.570312 127.429688 30.195312 126.65625 29.480469 C 125.953125 28.832031 124.429688 28.585938 122.246094 28.789062 Z M 122.246094 28.789062 " fill-opacity="1" fill-rule="nonzero"/></g><g clip-path="url(#9349a55ebe)"><path fill="#004f44" d="M 0.917969 28.890625 C 0.777344 28.945312 0.734375 29.96875 0.734375 33.328125 L 0.734375 37.710938 L 1.710938 37.667969 L 2.671875 37.625 L 2.742188 35.65625 L 2.816406 33.675781 L 4.039062 35.6875 L 5.257812 37.695312 L 6.449219 37.695312 C 7.097656 37.695312 7.628906 37.667969 7.628906 37.625 C 7.628906 37.582031 6.980469 36.589844 6.191406 35.398438 C 5.402344 34.21875 4.753906 33.214844 4.753906 33.171875 C 4.753906 33.128906 5.402344 32.164062 6.191406 31.058594 C 7.226562 29.59375 7.585938 28.988281 7.457031 28.90625 C 7.226562 28.761719 5.746094 28.761719 5.53125 28.90625 C 5.460938 28.960938 4.785156 29.867188 4.066406 30.929688 L 2.742188 32.871094 L 2.742188 30.914062 C 2.742188 29.019531 2.730469 28.960938 2.429688 28.875 C 2.039062 28.773438 1.164062 28.773438 0.917969 28.890625 Z M 0.917969 28.890625 " fill-opacity="1" fill-rule="nonzero"/></g><g clip-path="url(#ed2dca3f7e)"><path fill="#004f44" d="M 9.035156 28.945312 C 8.808594 29.078125 8.777344 29.378906 8.777344 31.863281 C 8.777344 35.914062 9.023438 36.777344 10.359375 37.453125 C 10.933594 37.738281 11.207031 37.769531 12.886719 37.753906 C 14.164062 37.738281 14.914062 37.667969 15.1875 37.523438 L 15.601562 37.335938 L 15.601562 28.863281 L 13.734375 28.863281 L 13.691406 32.480469 L 13.664062 36.117188 L 12.644531 36.117188 C 12.082031 36.117188 11.507812 36.058594 11.363281 35.972656 C 10.890625 35.714844 10.789062 35.023438 10.789062 31.949219 C 10.789062 28.644531 10.832031 28.789062 9.8125 28.789062 C 9.523438 28.789062 9.164062 28.863281 9.035156 28.945312 Z M 9.035156 28.945312 " fill-opacity="1" fill-rule="nonzero"/></g><g clip-path="url(#9d75625fb5)"><path fill="#004f44" d="M 18.257812 28.890625 C 17.988281 28.933594 17.671875 29.019531 17.585938 29.105469 C 17.441406 29.21875 17.398438 30.269531 17.398438 33.488281 L 17.398438 37.710938 L 18.375 37.667969 L 19.335938 37.625 L 19.378906 34.0625 L 19.410156 30.511719 L 20.097656 30.484375 C 21.234375 30.441406 21.621094 30.511719 21.921875 30.816406 C 22.195312 31.074219 22.210938 31.316406 22.253906 34.40625 L 22.296875 37.710938 L 23.257812 37.667969 L 24.222656 37.625 L 24.265625 34.679688 C 24.308594 31.390625 24.179688 30.457031 23.605469 29.765625 C 22.945312 28.988281 22.28125 28.789062 20.414062 28.816406 C 19.511719 28.832031 18.53125 28.863281 18.257812 28.890625 Z M 18.257812 28.890625 " fill-opacity="1" fill-rule="nonzero"/></g><g clip-path="url(#49905b9baa)"><path fill="#004f44" d="M 26.953125 29.046875 C 25.988281 29.507812 25.800781 29.824219 25.800781 31 C 25.800781 32.351562 26.046875 32.667969 27.957031 33.859375 C 29.320312 34.707031 29.394531 34.78125 29.4375 35.285156 C 29.507812 36.046875 29.179688 36.175781 27.425781 36.074219 C 26.375 36.003906 26.019531 36.03125 26.019531 36.160156 C 26.003906 36.261719 25.972656 36.578125 25.929688 36.863281 C 25.859375 37.351562 25.890625 37.425781 26.261719 37.582031 C 26.476562 37.667969 27.339844 37.753906 28.171875 37.753906 C 29.464844 37.769531 29.765625 37.726562 30.285156 37.453125 C 31.132812 36.992188 31.519531 36.375 31.59375 35.398438 C 31.691406 34.035156 31.320312 33.558594 29.179688 32.335938 C 28.042969 31.675781 27.800781 31.492188 27.769531 31.160156 C 27.742188 30.945312 27.785156 30.699219 27.871094 30.613281 C 27.957031 30.527344 28.675781 30.484375 29.667969 30.5 C 31.289062 30.527344 31.320312 30.527344 31.390625 30.195312 C 31.605469 29.003906 31.433594 28.890625 29.265625 28.832031 C 27.785156 28.789062 27.441406 28.816406 26.953125 29.046875 Z M 26.953125 29.046875 " fill-opacity="1" fill-rule="nonzero"/></g><g clip-path="url(#695e422226)"><path fill="#004f44" d="M 32.539062 28.988281 C 32.496094 29.089844 32.484375 29.464844 32.511719 29.808594 L 32.554688 30.441406 L 33.605469 30.511719 L 34.652344 30.585938 L 34.652344 33.933594 C 34.652344 35.773438 34.679688 37.367188 34.722656 37.480469 C 34.796875 37.640625 35.054688 37.695312 35.730469 37.695312 L 36.648438 37.695312 L 36.648438 30.511719 L 37.710938 30.511719 C 38.546875 30.511719 38.789062 30.46875 38.859375 30.285156 C 39.003906 29.910156 38.960938 29.148438 38.777344 28.960938 C 38.503906 28.6875 32.640625 28.71875 32.539062 28.988281 Z M 32.539062 28.988281 " fill-opacity="1" fill-rule="nonzero"/></g><g clip-path="url(#833a52c3d9)"><path fill="#004f44" d="M 41.820312 29.019531 C 41.160156 29.304688 40.570312 29.867188 40.199219 30.585938 C 39.910156 31.101562 39.882812 31.390625 39.882812 33.242188 C 39.882812 35.285156 39.894531 35.339844 40.3125 36.117188 C 40.628906 36.675781 40.945312 37.023438 41.449219 37.335938 C 42.136719 37.753906 42.222656 37.769531 43.746094 37.753906 C 44.621094 37.738281 45.511719 37.667969 45.742188 37.582031 L 46.132812 37.410156 L 46.132812 33.085938 L 45.167969 33.128906 L 44.191406 33.171875 L 44.164062 34.464844 C 44.148438 35.167969 44.132812 35.84375 44.132812 35.929688 C 44.121094 36.058594 43.890625 36.117188 43.488281 36.117188 C 42.265625 36.117188 41.820312 35.382812 41.820312 33.316406 C 41.820312 31.992188 42.007812 31.1875 42.410156 30.785156 C 42.65625 30.542969 42.898438 30.511719 44.421875 30.511719 L 46.144531 30.511719 L 46.101562 29.765625 L 46.058594 29.003906 L 45.484375 28.90625 C 44.4375 28.71875 42.351562 28.789062 41.820312 29.019531 Z M 41.820312 29.019531 " fill-opacity="1" fill-rule="nonzero"/></g><g clip-path="url(#25c785b987)"><path fill="#004f44" d="M 48.285156 28.917969 L 47.925781 29.019531 L 47.882812 33.359375 L 47.855469 37.695312 L 49.707031 37.695312 L 49.75 36.074219 L 49.792969 34.464844 L 50.253906 34.421875 C 50.785156 34.363281 50.816406 34.40625 51.878906 36.460938 L 52.507812 37.695312 L 53.558594 37.695312 C 54.132812 37.695312 54.605469 37.652344 54.605469 37.609375 C 54.605469 37.554688 54.21875 36.792969 53.746094 35.902344 C 53.269531 35.011719 52.882812 34.234375 52.882812 34.164062 C 52.882812 34.089844 53.085938 33.902344 53.3125 33.746094 C 54.289062 33.097656 54.605469 31.433594 54.003906 30.226562 C 53.746094 29.722656 53.5 29.492188 52.898438 29.175781 C 52.164062 28.816406 52.007812 28.789062 50.382812 28.804688 C 49.421875 28.816406 48.488281 28.863281 48.285156 28.917969 Z M 51.445312 30.511719 C 52.09375 30.6875 52.308594 30.988281 52.308594 31.71875 C 52.308594 32.554688 51.933594 32.8125 50.726562 32.8125 L 49.722656 32.8125 L 49.722656 31.691406 C 49.722656 31.074219 49.75 30.527344 49.792969 30.5 C 49.921875 30.355469 50.902344 30.371094 51.445312 30.511719 Z M 51.445312 30.511719 " fill-opacity="1" fill-rule="nonzero"/></g><g clip-path="url(#3bf120ff9b)"><path fill="#004f44" d="M 57.4375 28.988281 C 56.074219 29.480469 55.988281 29.765625 55.929688 33.730469 C 55.898438 35.527344 55.914062 37.164062 55.957031 37.351562 C 56.042969 37.667969 56.117188 37.695312 56.976562 37.695312 L 57.910156 37.695312 L 57.910156 34.535156 L 60.640625 34.535156 L 60.640625 37.710938 L 61.617188 37.667969 L 62.582031 37.625 L 62.582031 34.035156 C 62.582031 30.6875 62.566406 30.414062 62.292969 29.9375 C 61.804688 29.105469 60.984375 28.789062 59.347656 28.789062 C 58.585938 28.804688 57.738281 28.890625 57.4375 28.988281 Z M 60.496094 30.785156 C 60.570312 30.945312 60.640625 31.492188 60.640625 32.007812 L 60.640625 32.957031 L 57.910156 32.957031 L 57.910156 31.964844 C 57.910156 30.65625 58.054688 30.511719 59.347656 30.511719 C 60.179688 30.511719 60.367188 30.554688 60.496094 30.785156 Z M 60.496094 30.785156 " fill-opacity="1" fill-rule="nonzero"/></g><g clip-path="url(#1d0ad19994)"><path fill="#004f44" d="M 65.511719 28.933594 C 64.507812 29.234375 63.945312 30.011719 63.945312 31.117188 C 63.960938 31.820312 64.289062 32.523438 64.808594 32.925781 C 65.007812 33.070312 65.710938 33.542969 66.386719 33.960938 C 67.0625 34.378906 67.652344 34.796875 67.710938 34.882812 C 67.910156 35.167969 67.824219 35.542969 67.523438 35.84375 C 67.222656 36.144531 67.121094 36.144531 65.726562 36.074219 L 64.234375 35.972656 L 64.234375 36.75 C 64.234375 37.652344 64.234375 37.652344 66.027344 37.785156 C 68.457031 37.96875 69.878906 37.007812 69.878906 35.152344 C 69.878906 33.960938 69.40625 33.402344 67.566406 32.410156 C 66.472656 31.804688 66.070312 31.519531 66 31.261719 C 65.84375 30.597656 66.1875 30.46875 68.039062 30.5 L 69.707031 30.527344 L 69.621094 29.003906 L 69.046875 28.90625 C 68.285156 28.773438 65.984375 28.789062 65.511719 28.933594 Z M 65.511719 28.933594 " fill-opacity="1" fill-rule="nonzero"/></g><g clip-path="url(#e3d6113563)"><path fill="#004f44" d="M 91.917969 28.890625 C 91.746094 29.046875 91.800781 35.570312 91.976562 36.1875 C 92.175781 36.921875 92.734375 37.511719 93.382812 37.695312 C 93.957031 37.855469 96.011719 37.871094 96.558594 37.710938 C 96.875 37.625 96.917969 37.539062 96.917969 36.90625 L 96.917969 36.1875 L 95.636719 36.144531 C 94.917969 36.117188 94.257812 36.03125 94.160156 35.945312 C 94.015625 35.828125 93.972656 35.039062 93.972656 32.523438 C 93.972656 30.714844 93.929688 29.148438 93.886719 29.019531 C 93.8125 28.847656 93.585938 28.789062 92.910156 28.789062 C 92.40625 28.789062 91.960938 28.832031 91.917969 28.890625 Z M 91.917969 28.890625 " fill-opacity="1" fill-rule="nonzero"/></g><g clip-path="url(#a3736fa098)"><path fill="#004f44" d="M 98.136719 33.242188 L 98.136719 37.695312 L 100.148438 37.695312 L 100.121094 33.273438 L 100.078125 28.863281 L 99.113281 28.816406 L 98.136719 28.773438 Z M 98.136719 33.242188 " fill-opacity="1" fill-rule="nonzero"/></g><g clip-path="url(#61689bdd7f)"><path fill="#004f44" d="M 129.269531 28.890625 C 129.097656 29.046875 129.15625 35.742188 129.328125 36.273438 C 129.558594 36.949219 130.089844 37.480469 130.734375 37.683594 C 131.410156 37.882812 133.464844 37.898438 133.984375 37.695312 C 134.328125 37.566406 134.355469 37.496094 134.3125 36.878906 L 134.269531 36.1875 L 132.949219 36.144531 C 132.113281 36.117188 131.582031 36.046875 131.484375 35.929688 C 131.398438 35.800781 131.324219 34.535156 131.324219 32.46875 C 131.308594 30.65625 131.265625 29.105469 131.222656 28.988281 C 131.167969 28.847656 130.894531 28.789062 130.261719 28.789062 C 129.757812 28.789062 129.3125 28.832031 129.269531 28.890625 Z M 129.269531 28.890625 " fill-opacity="1" fill-rule="nonzero"/></g><path fill="#004f44" d="M 70.871094 34.0625 L 70.914062 34.75 L 72.234375 34.796875 C 73.558594 34.839844 73.558594 34.839844 73.65625 34.464844 C 73.699219 34.261719 73.699219 33.945312 73.65625 33.746094 C 73.570312 33.402344 73.542969 33.386719 72.191406 33.386719 L 70.828125 33.386719 Z M 70.871094 34.0625 " fill-opacity="1" fill-rule="nonzero"/><g clip-path="url(#5f59743028)"><path fill="#004f44" d="M 117.574219 35.800781 C 117.273438 35.84375 117.246094 35.929688 117.246094 36.777344 L 117.246094 37.695312 L 119.113281 37.695312 L 119.113281 36.761719 C 119.113281 36.03125 119.070312 35.828125 118.898438 35.816406 C 118.335938 35.757812 117.863281 35.757812 117.574219 35.800781 Z M 117.574219 35.800781 " fill-opacity="1" fill-rule="nonzero"/></g></svg>