<?xml version="1.0" standalone="no"?>
<!DOCTYPE svg PUBLIC "-//W3C//DTD SVG 1.1//EN" "http://www.w3.org/Graphics/SVG/1.1/DTD/svg11.dtd">
<svg xmlns="http://www.w3.org/2000/svg" id="Laag_1" version="1.1" viewBox="0 0 387 117.5" width="387" height="117.5">
  <!-- Generator: Adobe Illustrator 29.5.1, SVG Export Plug-In . SVG Version: 2.1.0 Build 141)  -->
  <defs>
    <style>
      .st0 {
        stroke: #009fe3;
      }

      .st0, .st1, .st2 {
        fill: #fff;
      }

      .st1 {
        stroke: #ffed00;
      }

      .st3 {
        fill: #ffed00;
      }

      .st4 {
        fill: #009fe3;
      }

      .st5 {
        fill: #bfbfbf;
      }
    </style>
  </defs>
  <rect class="st5" x="55.8" y="229" width="77.2" height="77.2"/>
  <rect class="st5" x="-323.8" y="111.6" width="309.4" height="309.4"/>
  <path d="M68.8,287.7c-2-.1-3.9-.3-5.7-.5l-16.7,24c4.3.5,8.8.9,13.4,1.2l9-24.6Z"/>
  <path class="st3" d="M68.4,285.9c-2-.1-3.9-.3-5.7-.5l-16.7,24c4.3.5,8.8.9,13.4,1.2l9-24.6Z"/>
  <path d="M73,284.5c-1.7,0-3.3,0-4.9-.2l-9,24.6c3.8.2,7.7.3,11.6.3l2.4-24.8Z"/>
  <path class="st4" d="M72.6,282.7c-1.7,0-3.3,0-4.9-.2l-9,24.6c3.8.2,7.7.3,11.6.3l2.4-24.8Z"/>
  <path class="st2" d="M68.2,283.7l-7.6,21.9h0c0,.1,0,.3.2.3.1,0,.3,0,.3-.2h0l7.6-21.9h0c0-.1,0-.3-.2-.3-.1,0-.3,0-.3.2h0Z"/>
  <path class="st4" d="M62.9,286.4l-14.1,21.3h0c0,.1,0,.3,0,.3.1,0,.3,0,.3,0h0l14.1-21.3h0c0-.1,0-.3,0-.3-.1,0-.3,0-.3,0h0Z"/>
  <path d="M77,281c-.8,0-1.7,0-2.6,0-.7,0-1.5,0-2.2,0l-2.4,24.8c1.7,0,3.3,0,5,0,2.1,0,4.1-.1,6.1-.2l-4-24.7Z"/>
  <path class="st3" d="M76.6,279.2c-.8,0-1.7,0-2.6,0-.7,0-1.5,0-2.2,0l-2.4,24.8c1.7,0,3.3,0,5,0,2.1,0,4.1-.1,6.1-.2l-4-24.7Z"/>
  <path d="M79.4,277.6c-1.6.2-3.2.3-4.9.4l4,24.7c4-.2,7.8-.5,11.7-.8l-10.8-24.2Z"/>
  <path class="st4" d="M79,275.8c-1.6.2-3.2.3-4.9.4l4,24.7c4-.2,7.8-.5,11.7-.8l-10.8-24.2Z"/>
  <path d="M82.6,273.9c-2.1.5-3.7.6-5.6.7l10.8,24.2c4.6-.5,9.2-1.1,13.6-1.8l-18.7-23.1Z"/>
  <path class="st3" d="M82.1,272.1c-2.1.5-3.7.6-5.6.7l10.8,24.2c4.6-.5,9.2-1.1,13.6-1.8l-18.7-23.1Z"/>
  <path d="M85.6,269.7c-2.3.6-4.7,1.1-7.2,1.6l18.7,23.1c6-1,11.7-2.3,17.1-3.7l-28.6-20.9Z"/>
  <path class="st4" d="M85.2,267.9c-2.3.6-4.7,1.1-7.2,1.6l18.7,23.1c6-1,11.7-2.3,17.1-3.7l-28.6-20.9Z"/>
  <path d="M90.9,263.7c-2.7,1.3-5.9,2.5-9.4,3.4l28.6,20.9c8.2-2.3,15.7-5,22.2-8.2l-41.4-16.2Z"/>
  <path class="st3" d="M90.5,261.9c-2.7,1.3-5.9,2.5-9.4,3.4l28.6,20.9c8.2-2.3,15.7-5,22.2-8.2l-41.4-16.2Z"/>
  <path d="M92.6,254.6c-1.8,2.7-5.1,5.2-9.3,7.2l41.4,16.2c10-4.9,17.6-10.7,21.9-17.1l-54-6.4Z"/>
  <path class="st4" d="M92.2,252.8c-1.8,2.7-5.1,5.2-9.3,7.2l41.4,16.2c10-4.9,17.6-10.7,21.9-17.1l-54-6.4Z"/>
  <path d="M89.4,245c1,1.5,1.6,3.2,1.6,4.9,0,1.9-.6,3.7-1.7,5.4l54,6.4c2.8-4.1,4.2-8.4,4.1-12.8,0-4-1.4-7.9-3.8-11.5l-54.2,7.7Z"/>
  <path class="st3" d="M88.9,243.2c1,1.5,1.6,3.2,1.6,4.9,0,1.9-.6,3.7-1.7,5.4l54,6.4c2.8-4.1,4.2-8.4,4.1-12.8,0-4-1.4-7.9-3.8-11.5l-54.2,7.7Z"/>
  <path d="M80.9,241.3c4.2,2,7.5,4.4,9.3,7.1l54.2-7.7c-4.3-6.5-12-12.2-22.2-16.9l-41.3,17.5Z"/>
  <path class="st4" d="M80.5,239.5c4.2,2,7.5,4.4,9.3,7.1l54.2-7.7c-4.3-6.5-12-12.2-22.2-16.9l-41.3,17.5Z"/>
  <path class="st2" d="M91,245.3l49.9-7.3h0c.1,0,.2-.1.2-.3,0-.1-.1-.2-.3-.2h0l-49.9,7.3h0c-.1,0-.2.1-.2.3s.1.2.3.2h0Z"/>
  <path class="st2" d="M85.5,260l39.6,14.4h0c.1,0,.3,0,.3-.1,0-.1,0-.3-.1-.3h0l-39.6-14.4h0c-.1,0-.3,0-.3.1,0,.1,0,.3.1.3h0Z"/>
  <path class="st4" d="M83.5,265.8l26.5,19.1h0c.1,0,.3,0,.3,0,0-.1,0-.3,0-.3h0l-26.5-19.1h0c-.1,0-.3,0-.3,0,0,.1,0,.3,0,.3h0Z"/>
  <path class="st2" d="M79.8,270.3l17.3,20.7h0c0,.1.2.1.4,0,.1,0,.1-.2,0-.4h0l-17.3-20.7h0c0-.1-.2-.1-.4,0-.1,0-.1.2,0,.4h0Z"/>
  <path class="st2" d="M75.2,277.4l4.3,21.8h0c0,.1.2.2.3.2.1,0,.2-.2.2-.3h0l-4.3-21.8h0c0-.1-.2-.2-.3-.2-.1,0-.2.2-.2.3h0Z"/>
  <path class="st4" d="M72.5,280.5l-1.3,22.1h0c0,.1,0,.3.2.3.1,0,.3,0,.3-.2h0l1.3-22.1h0c0-.1,0-.3-.2-.3s-.3,0-.3.2h0Z"/>
  <path class="st4" d="M77.8,274l10.6,21.7h0c0,.1.2.2.3.1.1,0,.2-.2.1-.3h0l-10.6-21.7h0c0-.1-.2-.2-.3-.1s-.2.2-.1.3h0Z"/>
  <path class="st4" d="M91.2,252.7l50.7,5.5h0c.1,0,.3,0,.3-.2,0-.1,0-.3-.2-.3h0l-50.7-5.5h0c-.1,0-.3,0-.3.2,0,.1,0,.3.2.3h0Z"/>
  <path class="st2" d="M121.3,217.1c12,3.5,24.1,13.1,24,24.7,0,11.8-13.1,35.1-99.5,58.7h0c-.7.2-1.1.9-.9,1.5.2.7.9,1.1,1.5.9h0c83.6-22.9,101.2-45.8,101.3-61.1,0-12.9-12.9-23.4-25.8-27.1h0c-.7-.2-1.4.2-1.5.9-.2.7.2,1.4.9,1.5h0Z"/>
  <path d="M121.5,216.6c12.2,3.5,24.5,13.3,24.4,25.2,0,11.9-13.2,35.5-99.9,59.2h0c-.4.1-.6.5-.5.9.1.4.5.6.9.5h0c83.3-22.8,100.9-45.5,101-60.6,0-12.6-12.8-22.9-25.5-26.6h0c-.4-.1-.8.1-.9.5-.1.4.1.8.5.9h0Z"/>
  <g>
    <path d="M-1265.5,269.5c-5.6-.3-11.1-.8-16.4-1.5l-47.6,68.5c12.4,1.5,25.2,2.7,38.3,3.4l25.7-70.4Z"/>
    <path class="st3" d="M-1266.6,264.3c-5.6-.3-11.1-.8-16.4-1.5l-47.6,68.5c12.4,1.5,25.2,2.7,38.3,3.4l25.7-70.4Z"/>
    <path d="M-1253.5,260.2c-4.8,0-9.5-.2-14.1-.4l-25.7,70.4c10.8.6,21.9,1,33.1,1l6.8-70.9Z"/>
    <path class="st4" d="M-1254.7,255.1c-4.8,0-9.5-.2-14.1-.4l-25.7,70.4c10.8.6,21.9,1,33.1,1l6.8-70.9Z"/>
    <path class="st2" d="M-1267.2,257.9l-21.8,62.4h0c-.1.4,0,.8.4.9.4.1.8,0,.9-.4h0l21.8-62.4h0c.1-.4,0-.8-.4-.9-.4-.1-.8,0-.9.4h0Z"/>
    <path class="st4" d="M-1282.3,265.7l-40.3,60.7h0c-.2.3-.1.8.2,1,.3.2.8.1,1-.2h0l40.3-60.7h0c.2-.3.1-.8-.2-1-.3-.2-.8-.1-1,.2h0Z"/>
    <path d="M-1242.2,250.3c-2.4.1-4.9.2-7.3.2-2.1,0-4.2,0-6.2,0l-6.8,70.9c4.7,0,9.5,0,14.3-.1,5.9-.1,11.7-.3,17.5-.6l-11.5-70.5Z"/>
    <path class="st3" d="M-1243.3,245.1c-2.4.1-4.9.2-7.3.2-2.1,0-4.2,0-6.2,0l-6.8,70.9c4.7,0,9.5,0,14.3-.1,5.9-.1,11.7-.3,17.5-.6l-11.5-70.5Z"/>
    <path d="M-1235.3,240.7c-4.6.5-9.2.8-13.9,1l11.5,70.5c11.3-.5,22.4-1.3,33.3-2.4l-30.9-69.1Z"/>
    <path class="st4" d="M-1236.4,235.5c-4.6.5-9.2.8-13.9,1l11.5,70.5c11.3-.5,22.4-1.3,33.3-2.4l-30.9-69.1Z"/>
    <path d="M-1226.2,230c-6,1.3-10.6,1.6-16.1,2.1l30.9,69.1c13.3-1.3,26.2-3.1,38.7-5.2l-53.6-66.1Z"/>
    <path class="st3" d="M-1227.4,224.8c-6,1.3-10.6,1.6-16.1,2.1l30.9,69.1c13.3-1.3,26.2-3.1,38.7-5.2l-53.6-66.1Z"/>
    <path d="M-1217.5,218c-6.5,1.8-13.4,3.2-20.6,4.4l53.6,66.1c17.1-2.9,33.4-6.5,48.8-10.7l-81.8-59.9Z"/>
    <path class="st4" d="M-1218.7,212.9c-6.5,1.8-13.4,3.2-20.6,4.5l53.6,66.1c17.1-2.9,33.4-6.5,48.8-10.7l-81.8-59.9Z"/>
    <path d="M-1202.5,200.7c-7.8,3.8-16.9,7.1-26.9,9.9l81.8,59.9c23.6-6.4,44.9-14.3,63.4-23.3l-118.2-46.4Z"/>
    <path class="st3" d="M-1203.6,195.6c-7.8,3.8-16.9,7.1-26.9,9.9l81.8,59.9c23.6-6.4,44.9-14.3,63.4-23.3l-118.2-46.4Z"/>
    <path d="M-1197.4,174.7c-5.3,7.7-14.5,14.8-26.6,20.7l118.2,46.4c28.5-13.9,50.2-30.6,62.6-48.9l-154.2-18.2Z"/>
    <path class="st4" d="M-1198.6,169.6c-5.3,7.8-14.5,14.8-26.6,20.7l118.2,46.4c28.5-13.9,50.2-30.6,62.6-48.9l-154.2-18.2Z"/>
    <path d="M-1206.8,147.5c3,4.4,4.6,9.1,4.7,14,0,5.3-1.7,10.5-5,15.5l154.2,18.2c7.9-11.7,12.1-24,11.8-36.7-.2-11.5-4-22.5-10.9-32.9l-154.8,21.9Z"/>
    <path class="st3" d="M-1208,142.3c3,4.4,4.6,9.1,4.7,14,.1,5.3-1.7,10.5-5,15.5l154.2,18.2c7.9-11.7,12.1-24,11.8-36.7-.2-11.5-4-22.5-10.9-32.9l-154.8,21.9Z"/>
    <path d="M-1231.1,137c12.1,5.6,21.3,12.5,26.5,20.2l154.8-21.9c-12.2-18.4-34.2-34.9-63.4-48.3l-117.9,50.1Z"/>
    <path class="st4" d="M-1232.2,131.8c12.1,5.6,21.3,12.5,26.5,20.2l154.8-21.9c-12.2-18.4-34.2-34.9-63.4-48.3l-117.9,50.1Z"/>
    <path class="st2" d="M-1202,148.2l142.6-20.8h0c.4,0,.7-.4.6-.8,0-.4-.4-.7-.8-.6h0l-142.6,20.8h0c-.4,0-.7.4-.6.8s.4.7.8.6h0Z"/>
    <path class="st2" d="M-1217.9,190.3l113.3,41.2h0c.4.1.8,0,.9-.4.1-.4,0-.8-.4-.9h0l-113.3-41.2h0c-.4-.1-.8,0-.9.4-.1.4,0,.8.4.9h0Z"/>
    <path class="st4" d="M-1223.4,206.7l75.7,54.7h0c.3.2.8.2,1-.2.2-.3.2-.8-.2-1h0l-75.7-54.7h0c-.3-.2-.8-.2-1,.2-.2.3-.2.8.2,1h0Z"/>
    <path class="st2" d="M-1234.2,219.7l49.5,59h0c.3.3.7.3,1,0,.3-.3.3-.7,0-1h0l-49.5-59h0c-.3-.3-.7-.3-1,0-.3.3-.3.7,0,1h0Z"/>
    <path class="st2" d="M-1247.3,240.1l12.3,62.2h0c0,.4.5.6.8.6.4,0,.6-.5.6-.8h0l-12.3-62.2h0c0-.4-.5-.6-.8-.6-.4,0-.6.5-.6.8h0Z"/>
    <path class="st4" d="M-1255,248.7l-3.8,63.3h0c0,.4.3.7.7.8.4,0,.7-.3.8-.7h0l3.8-63.3h0c0-.4-.3-.7-.7-.8s-.7.3-.8.7h0Z"/>
    <path class="st4" d="M-1240,230.2l30.2,62.1h0c.2.4.6.5,1,.3.4-.2.5-.6.3-1h0l-30.2-62.1h0c-.2-.4-.6-.5-1-.3s-.5.6-.3,1h0Z"/>
    <path class="st4" d="M-1201.5,169.5l144.7,15.9h0c.4,0,.7-.2.8-.6,0-.4-.2-.7-.6-.8h0l-144.7-15.9h0c-.4,0-.7.2-.8.6,0,.4.2.7.6.8h0Z"/>
    <path class="st2" d="M-1115.4,67.7c34.3,9.9,68.9,37.3,68.7,70.5-.2,33.7-37.5,100.2-284.3,167.7h0c-1.9.5-3,2.5-2.5,4.4.5,1.9,2.5,3,4.4,2.5h0c238.7-65.3,289.2-131,289.6-174.6.3-36.7-37-66.8-73.9-77.4h0c-1.9-.5-3.9.5-4.4,2.4-.5,1.9.5,3.9,2.4,4.4h0Z"/>
    <path d="M-1115.1,66.3c34.9,10.1,70.1,38,69.8,71.9-.2,34.1-37.6,101.3-285.4,169.1h0c-1.1.3-1.8,1.5-1.5,2.6.3,1.1,1.5,1.8,2.6,1.5h0c237.9-65.1,288.2-130.1,288.5-173.2.2-36.1-36.5-65.6-72.9-76.1h0c-1.1-.3-2.3.3-2.7,1.5-.3,1.1.3,2.3,1.5,2.7h0Z"/>
  </g>
  <path d="M-889.8,521.8c-5.6-.3-11.1-.8-16.4-1.5l-47.6,68.5c12.4,1.5,25.2,2.7,38.3,3.4l25.7-70.4Z"/>
  <path class="st3" d="M-890.9,516.6c-5.6-.3-11.1-.8-16.4-1.5l-47.6,68.5c12.4,1.5,25.2,2.7,38.3,3.4l25.7-70.4Z"/>
  <path d="M-877.8,512.5c-4.8,0-9.5-.2-14.1-.4l-25.7,70.4c10.8.6,21.9,1,33.1,1l6.8-70.9Z"/>
  <path class="st4" d="M-879,507.4c-4.8,0-9.5-.2-14.1-.4l-25.7,70.4c10.8.6,21.9,1,33.1,1l6.8-70.9Z"/>
  <path class="st2" d="M-891.5,510.2l-21.8,62.4h0c-.1.4,0,.8.4.9.4.1.8,0,.9-.4h0l21.8-62.4h0c.1-.4,0-.8-.4-.9-.4-.1-.8,0-.9.4h0Z"/>
  <path class="st4" d="M-906.5,518l-40.3,60.7h0c-.2.3-.1.8.2,1,.3.2.8.1,1-.2h0l40.3-60.7h0c.2-.3.1-.8-.2-1-.3-.2-.8-.1-1,.2h0Z"/>
  <path d="M-866.5,502.6c-2.4.1-4.9.2-7.3.2-2.1,0-4.2,0-6.2,0l-6.8,70.9c4.7,0,9.5,0,14.3-.1,5.9-.1,11.7-.3,17.5-.6l-11.5-70.5Z"/>
  <path class="st3" d="M-867.6,497.4c-2.4.1-4.9.2-7.3.2-2.1,0-4.2,0-6.2,0l-6.8,70.9c4.7,0,9.5,0,14.3-.1,5.9-.1,11.7-.3,17.5-.6l-11.5-70.5Z"/>
  <path d="M-859.6,493c-4.6.5-9.2.8-13.9,1l11.5,70.5c11.3-.5,22.4-1.3,33.3-2.4l-30.9-69.1Z"/>
  <path class="st4" d="M-860.7,487.8c-4.6.5-9.2.8-13.9,1l11.5,70.5c11.3-.5,22.4-1.3,33.3-2.4l-30.9-69.1Z"/>
  <path d="M-850.5,482.3c-6,1.3-10.6,1.6-16.1,2.1l30.9,69.1c13.3-1.3,26.2-3.1,38.7-5.2l-53.6-66.1Z"/>
  <path class="st3" d="M-851.7,477.1c-6,1.3-10.6,1.6-16.1,2.1l30.9,69.1c13.3-1.3,26.2-3.1,38.7-5.2l-53.6-66.1Z"/>
  <path d="M-841.8,470.3c-6.5,1.8-13.4,3.2-20.6,4.4l53.6,66.1c17.1-2.9,33.4-6.5,48.8-10.7l-81.8-59.9Z"/>
  <path class="st4" d="M-843,465.2c-6.5,1.8-13.4,3.2-20.6,4.5l53.6,66.1c17.1-2.9,33.4-6.5,48.8-10.7l-81.8-59.9Z"/>
  <path d="M-826.8,453c-7.8,3.8-16.9,7.1-26.9,9.9l81.8,59.9c23.6-6.4,44.9-14.3,63.4-23.3l-118.2-46.4Z"/>
  <path class="st3" d="M-827.9,447.9c-7.8,3.8-16.9,7.1-26.9,9.9l81.8,59.9c23.6-6.4,44.9-14.3,63.4-23.3l-118.2-46.4Z"/>
  <path d="M-821.7,427c-5.3,7.7-14.5,14.8-26.6,20.7l118.2,46.4c28.5-13.9,50.2-30.6,62.6-48.9l-154.2-18.2Z"/>
  <path class="st4" d="M-822.9,421.9c-5.3,7.8-14.5,14.8-26.6,20.7l118.2,46.4c28.5-13.9,50.2-30.6,62.6-48.9l-154.2-18.2Z"/>
  <path d="M-831.1,399.7c3,4.4,4.6,9.1,4.7,14,0,5.3-1.7,10.5-5,15.5l154.2,18.2c7.9-11.7,12.1-24,11.8-36.7-.2-11.5-4-22.5-10.9-32.9l-154.8,21.9Z"/>
  <path class="st3" d="M-832.3,394.6c3,4.4,4.6,9.1,4.7,14,.1,5.3-1.7,10.5-5,15.5l154.2,18.2c7.9-11.7,12.1-24,11.8-36.7-.2-11.5-4-22.5-10.9-32.9l-154.8,21.9Z"/>
  <path d="M-855.4,389.3c12.1,5.6,21.3,12.5,26.5,20.2l154.8-21.9c-12.2-18.4-34.2-34.9-63.4-48.3l-117.9,50.1Z"/>
  <path class="st4" d="M-856.5,384.1c12.1,5.6,21.3,12.5,26.5,20.2l154.8-21.9c-12.2-18.4-34.2-34.9-63.4-48.3l-117.9,50.1Z"/>
  <path class="st2" d="M-826.3,400.5l142.6-20.8h0c.4,0,.7-.4.6-.8,0-.4-.4-.7-.8-.6h0l-142.6,20.8h0c-.4,0-.7.4-.6.8s.4.7.8.6h0Z"/>
  <path class="st2" d="M-842.2,442.6l113.3,41.2h0c.4.1.8,0,.9-.4.1-.4,0-.8-.4-.9h0l-113.3-41.2h0c-.4-.1-.8,0-.9.4-.1.4,0,.8.4.9h0Z"/>
  <path class="st4" d="M-847.7,459l75.7,54.7h0c.3.2.8.2,1-.2.2-.3.2-.8-.2-1h0l-75.7-54.7h0c-.3-.2-.8-.2-1,.2-.2.3-.2.8.2,1h0Z"/>
  <path class="st2" d="M-858.5,472l49.5,59h0c.3.3.7.3,1,0,.3-.3.3-.7,0-1h0l-49.5-59h0c-.3-.3-.7-.3-1,0-.3.3-.3.7,0,1h0Z"/>
  <path class="st2" d="M-871.6,492.4l12.3,62.2h0c0,.4.5.6.8.6.4,0,.6-.5.6-.8h0l-12.3-62.2h0c0-.4-.5-.6-.8-.6-.4,0-.6.5-.6.8h0Z"/>
  <path class="st4" d="M-879.3,501l-3.8,63.3h0c0,.4.3.7.7.8.4,0,.7-.3.8-.7h0l3.8-63.3h0c0-.4-.3-.7-.7-.8s-.7.3-.8.7h0Z"/>
  <path class="st4" d="M-864.2,482.5l30.2,62.1h0c.2.4.6.5,1,.3.4-.2.5-.6.3-1h0l-30.2-62.1h0c-.2-.4-.6-.5-1-.3s-.5.6-.3,1h0Z"/>
  <path class="st4" d="M-825.8,421.8l144.7,15.9h0c.4,0,.7-.2.8-.6,0-.4-.2-.7-.6-.8h0l-144.7-15.9h0c-.4,0-.7.2-.8.6,0,.4.2.7.6.8h0Z"/>
  <path class="st2" d="M-739.7,320c34.3,9.9,68.9,37.3,68.7,70.5-.2,33.7-37.5,100.2-284.3,167.7h0c-1.9.5-3,2.5-2.5,4.4.5,1.9,2.5,3,4.4,2.5h0c238.7-65.3,289.2-131,289.6-174.6.3-36.7-37-66.8-73.9-77.4h0c-1.9-.5-3.9.5-4.4,2.4-.5,1.9.5,3.9,2.4,4.4h0Z"/>
  <path d="M-739.4,318.6c34.9,10.1,70.1,38,69.8,71.9-.2,34.1-37.6,101.3-285.4,169.1h0c-1.1.3-1.8,1.5-1.5,2.6.3,1.1,1.5,1.8,2.6,1.5h0c237.9-65.1,288.2-130.1,288.5-173.2.2-36.1-36.5-65.6-72.9-76.1h0c-1.1-.3-2.3.3-2.7,1.5-.3,1.1.3,2.3,1.5,2.7h0Z"/>
  <path d="M58.9,279.1v-47.7l-.7.7h17.3c.4,0,.7-.3.7-.7s-.3-.7-.7-.7h-18.1v48.5h0c0,.4.3.7.7.7s.7-.3.7-.7h0Z"/>
  <path d="M104.3,305h27.6v-16.2h0c0-.4-.3-.7-.7-.7s-.7.3-.7.7h0v15.5l.7-.7h-26.9c-.4,0-.7.3-.7.7s.3.7.7.7h0Z"/>
  <g>
    <rect class="st5" x="17.4" y="25.9" width="77.2" height="77.2"/>
    <path d="M30.4,84.6c-2-.1-3.9-.3-5.7-.5l-16.7,24c4.3.5,8.8.9,13.4,1.2l9-24.6Z"/>
    <path class="st3" d="M30,82.8c-2-.1-3.9-.3-5.7-.5l-16.7,24c4.3.5,8.8.9,13.4,1.2l9-24.6Z"/>
    <path d="M34.5,81.3c-1.7,0-3.3,0-4.9-.2l-9,24.6c3.8.2,7.7.3,11.6.3l2.4-24.8Z"/>
    <path class="st4" d="M34.1,79.5c-1.7,0-3.3,0-4.9-.2l-9,24.6c3.8.2,7.7.3,11.6.3l2.4-24.8Z"/>
    <path class="st2" d="M29.7,80.5l-7.6,21.9h0c0,.1,0,.3.2.3.1,0,.3,0,.3-.2h0l7.6-21.9h0c0-.1,0-.3-.2-.3-.1,0-.3,0-.3.2h0Z"/>
    <path class="st4" d="M24.5,83.2l-14.1,21.3h0c0,.1,0,.3,0,.3.1,0,.3,0,.3,0h0l14.1-21.3h0c0-.1,0-.3,0-.3-.1,0-.3,0-.3,0h0Z"/>
    <rect x="124.6" y="66.3" width="249.4" height="36.7"/>
    <path d="M38.5,77.8c-.8,0-1.7,0-2.6,0-.7,0-1.5,0-2.2,0l-2.4,24.8c1.7,0,3.3,0,5,0,2.1,0,4.1-.1,6.1-.2l-4-24.7Z"/>
    <path class="st3" d="M38.1,76c-.8,0-1.7,0-2.6,0-.7,0-1.5,0-2.2,0l-2.4,24.8c1.7,0,3.3,0,5,0,2.1,0,4.1-.1,6.1-.2l-4-24.7Z"/>
    <path d="M40.9,74.5c-1.6.2-3.2.3-4.9.4l4,24.7c4-.2,7.8-.5,11.7-.8l-10.8-24.2Z"/>
    <path class="st4" d="M40.5,72.7c-1.6.2-3.2.3-4.9.4l4,24.7c4-.2,7.8-.5,11.7-.8l-10.8-24.2Z"/>
    <path d="M44.1,70.7c-2.1.5-3.7.6-5.6.7l10.8,24.2c4.6-.5,9.2-1.1,13.6-1.8l-18.7-23.1Z"/>
    <path class="st3" d="M43.7,68.9c-2.1.5-3.7.6-5.6.7l10.8,24.2c4.6-.5,9.2-1.1,13.6-1.8l-18.7-23.1Z"/>
    <path d="M47.1,66.6c-2.3.6-4.7,1.1-7.2,1.6l18.7,23.1c6-1,11.7-2.3,17.1-3.7l-28.6-20.9Z"/>
    <path class="st4" d="M46.7,64.8c-2.3.6-4.7,1.1-7.2,1.6l18.7,23.1c6-1,11.7-2.3,17.1-3.7l-28.6-20.9Z"/>
    <path d="M52.4,60.5c-2.7,1.3-5.9,2.5-9.4,3.4l28.6,20.9c8.2-2.3,15.7-5,22.2-8.2l-41.4-16.2Z"/>
    <path class="st3" d="M52,58.7c-2.7,1.3-5.9,2.5-9.4,3.4l28.6,20.9c8.2-2.3,15.7-5,22.2-8.2l-41.4-16.2Z"/>
    <path d="M54.2,51.4c-1.8,2.7-5.1,5.2-9.3,7.2l41.4,16.2c10-4.9,17.6-10.7,21.9-17.1l-54-6.4Z"/>
    <path class="st4" d="M53.8,49.6c-1.8,2.7-5.1,5.2-9.3,7.2l41.4,16.2c10-4.9,17.6-10.7,21.9-17.1l-54-6.4Z"/>
    <path d="M50.9,41.9c1,1.5,1.6,3.2,1.6,4.9,0,1.9-.6,3.7-1.7,5.4l54,6.4c2.8-4.1,4.2-8.4,4.1-12.8,0-4-1.4-7.9-3.8-11.5l-54.2,7.7Z"/>
    <path class="st3" d="M50.5,40.1c1,1.5,1.6,3.2,1.6,4.9,0,1.9-.6,3.7-1.7,5.4l54,6.4c2.8-4.1,4.2-8.4,4.1-12.8,0-4-1.4-7.9-3.8-11.5l-54.2,7.7Z"/>
    <path d="M42.4,38.2c4.2,2,7.5,4.4,9.3,7.1l54.2-7.7c-4.3-6.5-12-12.2-22.2-16.9l-41.3,17.5Z"/>
    <path class="st4" d="M42,36.4c4.2,2,7.5,4.4,9.3,7.1l54.2-7.7c-4.3-6.5-12-12.2-22.2-16.9l-41.3,17.5Z"/>
    <path class="st2" d="M52.6,42.1l49.9-7.3h0c.1,0,.2-.1.2-.3,0-.1-.1-.2-.3-.2h0l-49.9,7.3h0c-.1,0-.2.1-.2.3s.1.2.3.2h0Z"/>
    <path class="st2" d="M47,56.8l39.6,14.4h0c.1,0,.3,0,.3-.1,0-.1,0-.3-.1-.3h0l-39.6-14.4h0c-.1,0-.3,0-.3.1,0,.1,0,.3.1.3h0Z"/>
    <path class="st4" d="M45.1,62.6l26.5,19.1h0c.1,0,.3,0,.3,0,0-.1,0-.3,0-.3h0l-26.5-19.1h0c-.1,0-.3,0-.3,0,0,.1,0,.3,0,.3h0Z"/>
    <path class="st2" d="M41.3,67.1l17.3,20.7h0c0,.1.2.1.4,0,.1,0,.1-.2,0-.4h0l-17.3-20.7h0c0-.1-.2-.1-.4,0-.1,0-.1.2,0,.4h0Z"/>
    <path class="st2" d="M36.7,74.3l4.3,21.8h0c0,.1.2.2.3.2.1,0,.2-.2.2-.3h0l-4.3-21.8h0c0-.1-.2-.2-.3-.2-.1,0-.2.2-.2.3h0Z"/>
    <path class="st4" d="M34,77.3l-1.3,22.1h0c0,.1,0,.3.2.3.1,0,.3,0,.3-.2h0l1.3-22.1h0c0-.1,0-.3-.2-.3s-.3,0-.3.2h0Z"/>
    <path class="st4" d="M39.3,70.8l10.6,21.7h0c0,.1.2.2.3.1.1,0,.2-.2.1-.3h0l-10.6-21.7h0c0-.1-.2-.2-.3-.1s-.2.2-.1.3h0Z"/>
    <path class="st4" d="M52.8,49.6l50.7,5.5h0c.1,0,.3,0,.3-.2,0-.1,0-.3-.2-.3h0l-50.7-5.5h0c-.1,0-.3,0-.3.2,0,.1,0,.3.2.3h0Z"/>
    <path class="st2" d="M82.9,13.9c12,3.5,24.1,13.1,24,24.7,0,11.8-13.1,35.1-99.5,58.7h0c-.7.2-1.1.9-.9,1.5.2.7.9,1.1,1.5.9h0c83.6-22.9,101.2-45.8,101.3-61.1,0-12.9-12.9-23.4-25.8-27.1h0c-.7-.2-1.4.2-1.5.9-.2.7.2,1.4.9,1.5h0Z"/>
    <path d="M83,13.4c12.2,3.5,24.5,13.3,24.4,25.2,0,11.9-13.2,35.5-99.9,59.2h0c-.4.1-.6.5-.5.9.1.4.5.6.9.5h0c83.3-22.8,100.9-45.5,101-60.6,0-12.6-12.8-22.9-25.5-26.6h0c-.4-.1-.8.1-.9.5-.1.4.1.8.5.9h0Z"/>
    <path d="M20.5,75.9V28.2l-.7.7h17.3c.4,0,.7-.3.7-.7s-.3-.7-.7-.7h-18.1v48.5h0c0,.4.3.7.7.7s.7-.3.7-.7h0Z"/>
    <path d="M65.9,101.8h27.6v-16.2h0c0-.4-.3-.7-.7-.7s-.7.3-.7.7h0v15.5l.7-.7h-26.9c-.4,0-.7.3-.7.7s.3.7.7.7h0Z"/>
    <path d="M124.5,25.9h20c5.2,0,15.7,2.7,15.7,17.7s-5.8,17.8-18.1,17.8h-17.7V25.9ZM135.2,53.8h4.8c6.2,0,9.1-4.9,9.1-10.2s-2.4-10.1-8.3-10.1h-5.6v20.2Z"/>
    <path d="M191.7,39.7v7.6h-14.8v6.4h17.6v7.6h-28.8V25.9h28.8v7.6h-17.6v6.2h14.8Z"/>
    <path d="M228.1,61.4c-.9-3.1-9.7-24.8-13.9-35.4h11.5l9.2,26.5,10.5-26.5h11.6c-3.6,7.2-12.8,28.1-16.1,35.4h-12.8Z"/>
    <path d="M259.2,25.9h18.9c9.4,0,13,3.8,13,10.8s-2.9,7.2-7.8,9c2.6,5.3,5.2,10.9,7.8,15.7h-12c-2.4-6.7-4.9-13.4-7.9-19.9,1,.2,1.9.3,2.8.3,3.1,0,6.4-1.2,6.4-4.6s-3.5-3.8-5-3.8h-5.5v28h-10.7V25.9Z"/>
    <path d="M296.5,25.9h11.2v35.4h-11.2V25.9Z"/>
    <path d="M341.1,39.7v7.6h-14.8v6.4h17.6v7.6h-28.8V25.9h28.8v7.6h-17.6v6.2h14.8Z"/>
    <path d="M349.6,52c2.8,1.4,6.2,2.4,9.2,2.4s4.9-.3,4.9-2.8c0-4.5-13.5-8.1-13.5-17.2s3.2-9.2,13-9.2,6.4.4,9.4,1l1.2,8.4c-2.4-1.1-5.2-1.8-7.8-1.8s-4.7.7-4.7,2.6c0,5.2,13.5,7.7,13.5,16.9s-3.6,9.7-13.5,9.7-7.2-.6-10.6-1.2l-1.2-8.8Z"/>
    <path class="st2" d="M128.3,73.7h19.2v3.6h-7v19.1h-5.1v-19.1h-7v-3.6Z"/>
    <path class="st2" d="M164.8,73.7h10.4c4.4,0,7.4,2,7.4,5.7s-2.3,5.7-5.9,6.6l6,10.4h-5.4l-6.4-12.5c.6,0,1.5.2,2,.2,2.5,0,4.8-1.2,4.8-3.8s-.7-3.2-3.5-3.2h-4.6v19.3h-4.9v-22.7Z"/>
    <path class="st2" d="M208.2,73.7h6l9.3,22.7h-5.4l-3-7.9h-8.8l-3.4,7.9h-5.6l10.8-22.7ZM214,84.8l-2.9-7.6-3.4,7.6h6.3Z"/>
    <path class="st2" d="M245.2,83.5c.6,0,1.5.2,2.2.2,3.4,0,4.1-2.3,4.1-3.7,0-2.4-1.4-3-3.2-3h-4.1v19.3h-4.9v-22.7h10.7c4.9,0,6.3,3.6,6.3,6.4,0,4.3-3.4,6.9-7.9,6.9s-1.7-.1-2.4-.2l-1-3.3Z"/>
    <path class="st2" d="M280.1,83.5c.6,0,1.5.2,2.2.2,3.4,0,4.1-2.3,4.1-3.7,0-2.4-1.4-3-3.2-3h-4.1v19.3h-4.9v-22.7h10.7c4.9,0,6.3,3.6,6.3,6.4,0,4.3-3.4,6.9-7.9,6.9s-1.7-.1-2.4-.2l-1-3.3Z"/>
    <path class="st2" d="M326,77.3h-11.4v5.9h10v3.3h-10v6.2h11.4v3.6h-16.5v-22.7h16.5v3.6Z"/>
    <path class="st2" d="M345.4,73.7h6.3l11.1,17.1h0v-17.1h4.5v22.7h-6.2l-11.2-16.8h0v16.8h-4.5v-22.7Z"/>
  </g>
  <path class="st1" d="M-1419.1,681.8l1.8-4.9c-5.6-.3-11.1-.8-16.4-1.5l-47.6,68.5c1.5.2,2.9.3,4.4.5l-3.2,4.6c12.4,1.5,25.2,2.7,38.3,3.4l25.7-70.4c-1,0-2-.1-3-.2Z"/>
  <path class="st0" d="M-1405.9,672.7l.5-5.1c-4.8,0-9.5-.2-14.1-.4l-25.7,70.4c1,0,2,0,3,.1l-1.8,5c10.8.6,21.9,1,33.1,1l6.8-70.9c-.6,0-1.1,0-1.7,0Z"/>
  <path class="st1" d="M-1392.8,662.8c-.1,0-.2,0-.3,0l-.8-5.2c-2.4.1-4.9.2-7.3.2-2.1,0-4.2,0-6.2,0l-6.8,70.9c.6,0,1.1,0,1.7,0l-.5,5.1c4.7,0,9.5,0,14.3-.1,5.9-.1,11.7-.3,17.5-.6l-11.5-70.5Z"/>
  <path class="st0" d="M-1355,722.3l-2.3-5c.4,0,.7,0,1.1-.1l-30.9-69.1c-4.6.5-9.2.8-13.9,1l11.5,70.5c.1,0,.2,0,.3,0l.8,5.2c11.3-.5,22.4-1.3,33.3-2.4Z"/>
  <path class="st1" d="M-1327.2,703.8c.9-.1,1.8-.3,2.7-.4l-53.6-66.1c-6,1.3-10.6,1.6-16.1,2.1l2.3,5c-.4,0-.7,0-1.1.1l30.9,69.1c13.3-1.3,26.2-3.1,38.7-5.2l-3.8-4.7Z"/>
  <path class="st0" d="M-1291.9,686.4c1.4-.4,2.9-.8,4.3-1.1l-81.8-59.9c-6.5,1.8-13.4,3.2-20.6,4.5l3.8,4.7c-.9.2-1.7.3-2.6.5l53.6,66.1c17.1-2.9,33.4-6.5,48.8-10.7l-5.5-4Z"/>
  <path class="st1" d="M-1241.5,657c1.8-.8,3.6-1.7,5.4-2.6l-118.2-46.4c-7.8,3.8-16.9,7.1-26.9,9.9l5.4,3.9c-1.4.4-2.8.8-4.2,1.2l81.8,59.9c23.6-6.4,44.9-14.3,63.4-23.3l-6.6-2.6Z"/>
  <path class="st0" d="M-1198.4,604.9c1.2-1.5,2.3-3.1,3.4-4.6l-154.2-18.2c-5.3,7.8-14.5,14.8-26.6,20.7l6.3,2.5c-1.6.9-3.4,1.8-5.1,2.7l118.2,46.4c28.5-13.9,50.2-30.6,62.6-48.9l-4.5-.5Z"/>
  <path class="st1" d="M-1193.7,557.2c-1.5-8.4-4.9-16.6-10.1-24.4l-154.8,21.9c1.1,1.6,2,3.3,2.7,4.9l-1.5.2c1.4,2.2,2.6,4.4,3.4,6.7,0,.7.1,1.5.2,2.2.1,5.3-1.7,10.5-5,15.5l3.8.4c-.7,1.6-1.6,3.2-2.6,4.7l154.2,18.2c7.9-11.7,12.1-24,11.8-36.7,0-4.6-.8-9.2-2-13.7Z"/>
  <path class="st0" d="M-1203.9,542.9l2.3-.3c-12.2-18.4-34.2-34.9-63.4-48.3l-117.9,50.1c2.1,1,4.1,2,6.1,3.1l-4.9,2.1c12.1,5.6,21.3,12.5,26.5,20.2l154.8-21.9c-1.1-1.6-2.2-3.2-3.5-4.8Z"/>
  <path d="M-1862.4,689.7c-5.6-.3-11.1-.8-16.4-1.5l-47.6,68.5c12.4,1.5,25.2,2.7,38.3,3.4l25.7-70.4Z"/>
  <path class="st3" d="M-1863.6,684.5c-5.6-.3-11.1-.8-16.4-1.5l-47.6,68.5c12.4,1.5,25.2,2.7,38.3,3.4l25.7-70.4Z"/>
  <path d="M-1850.5,680.4c-4.8,0-9.5-.2-14.1-.4l-25.7,70.4c10.8.6,21.9,1,33.1,1l6.8-70.9Z"/>
  <path class="st4" d="M-1851.7,675.3c-4.8,0-9.5-.2-14.1-.4l-25.7,70.4c10.8.6,21.9,1,33.1,1l6.8-70.9Z"/>
  <path d="M-1839.2,670.5c-2.4.1-4.9.2-7.3.2-2.1,0-4.2,0-6.2,0l-6.8,70.9c4.7,0,9.5,0,14.3-.1,5.9-.1,11.7-.3,17.5-.6l-11.5-70.5Z"/>
  <path class="st3" d="M-1840.3,665.3c-2.4.1-4.9.2-7.3.2-2.1,0-4.2,0-6.2,0l-6.8,70.9c4.7,0,9.5,0,14.3-.1,5.9-.1,11.7-.3,17.5-.6l-11.5-70.5Z"/>
  <path d="M-1832.3,660.9c-4.6.5-9.2.8-13.9,1l11.5,70.5c11.3-.5,22.4-1.3,33.3-2.4l-30.9-69.1Z"/>
  <path class="st4" d="M-1833.4,655.7c-4.6.5-9.2.8-13.9,1l11.5,70.5c11.3-.5,22.4-1.3,33.3-2.4l-30.9-69.1Z"/>
  <path d="M-1823.2,650.2c-6,1.3-10.6,1.6-16.1,2.1l30.9,69.1c13.3-1.3,26.2-3.1,38.7-5.2l-53.6-66.1Z"/>
  <path class="st3" d="M-1824.4,645c-6,1.3-10.6,1.6-16.1,2.1l30.9,69.1c13.3-1.3,26.2-3.1,38.7-5.2l-53.6-66.1Z"/>
  <path d="M-1814.5,638.2c-6.5,1.8-13.4,3.2-20.6,4.4l53.6,66.1c17.1-2.9,33.4-6.5,48.8-10.7l-81.8-59.9Z"/>
  <path class="st4" d="M-1815.7,633.1c-6.5,1.8-13.4,3.2-20.6,4.5l53.6,66.1c17.1-2.9,33.4-6.5,48.8-10.7l-81.8-59.9Z"/>
  <path d="M-1799.5,620.9c-7.8,3.8-16.9,7.1-26.9,9.9l81.8,59.9c23.6-6.4,44.9-14.3,63.4-23.3l-118.2-46.4Z"/>
  <path class="st3" d="M-1800.6,615.7c-7.8,3.8-16.9,7.1-26.9,9.9l81.8,59.9c23.6-6.4,44.9-14.3,63.4-23.3l-118.2-46.4Z"/>
  <path d="M-1794.4,594.9c-5.3,7.7-14.5,14.8-26.6,20.7l118.2,46.4c28.5-13.9,50.2-30.6,62.6-48.9l-154.2-18.2Z"/>
  <path class="st4" d="M-1795.6,589.7c-5.3,7.8-14.5,14.8-26.6,20.7l118.2,46.4c28.5-13.9,50.2-30.6,62.6-48.9l-154.2-18.2Z"/>
  <path d="M-1803.8,567.6c3,4.4,4.6,9.1,4.7,14,0,5.3-1.7,10.5-5,15.5l154.2,18.2c7.9-11.7,12.1-24,11.8-36.7-.2-11.5-4-22.5-10.9-32.9l-154.8,21.9Z"/>
  <path class="st3" d="M-1805,562.5c3,4.4,4.6,9.1,4.7,14,.1,5.3-1.7,10.5-5,15.5l154.2,18.2c7.9-11.7,12.1-24,11.8-36.7-.2-11.5-4-22.5-10.9-32.9l-154.8,21.9Z"/>
  <path d="M-1828.1,557.1c12.1,5.6,21.3,12.5,26.5,20.2l154.8-21.9c-12.2-18.4-34.2-34.9-63.4-48.3l-117.9,50.1Z"/>
  <path class="st4" d="M-1829.2,552c12.1,5.6,21.3,12.5,26.5,20.2l154.8-21.9c-12.2-18.4-34.2-34.9-63.4-48.3l-117.9,50.1Z"/>
</svg>