<?xml version="1.0" standalone="no"?>
<!DOCTYPE svg PUBLIC "-//W3C//DTD SVG 1.1//EN" "http://www.w3.org/Graphics/SVG/1.1/DTD/svg11.dtd">
<svg xmlns="http://www.w3.org/2000/svg" xmlns:xlink="http://www.w3.org/1999/xlink" id="Laag_1" x="0px" y="0px" viewBox="0 0 136.9 60" style="enable-background:new 0 0 136.9 60;" xml:space="preserve" width="136.89999389648438" height="60"><style type="text/css">	.st0{fill:#11437D;}	.st1{fill:#E40520;}</style><g>	<g id="XMLID_46_">		<path id="XMLID_49_" class="st0" d="M46,19.1c0-0.1,0-0.4,0.1-0.9c0.2-1.2,0-2.5-0.5-4c-1.3-4.2-5.1-4.5-6.6-4.2   c-6.4,0.7-6,8.7-5.8,8.8l7.4,0.3h3.1L46,19.1z M75.2,19.6c0-0.9-0.3-2.1-1-3.4c-0.5-1.1-1.3-2-2.3-2.8c-5-4-11-0.4-12.2,2.5   c-0.2,0.4-0.3,4.7-0.3,12.4c3.7,4.3,10.6,4.3,13.8-0.3c1.3-1.9,1.9-5.1,1.9-5.6V19.6z M129.6,15c0-1.9,0-4.9-4.7-5.9   c-6.4-1.3-8.3,4.6-6.1,6.9c0.6,0.6,1.9,1.1,4.2,1.7c3.1,0.8,5,1.3,5.7,1.5c3.8,1.3,5.3,3.9,4.2,7.7c-0.8,3.2-3.8,6.6-10,6.8   c-3.7,0.2-8.7-1.2-9.2-1.4c0-0.1,0.1-0.6,0.3-1.5c0.2-1.3,0.2-2.2,0.2-2.8l0-3h1.6c0,2.3,0.3,3.9,0.9,4.8c0.8,1.3,2.1,2.2,4.2,2.3   c9.5,0.7,8.6-5.7,8-7c-0.8-1.5-2.3-1.9-5.1-2.6c-2.5-0.6-4.1-1-4.7-1.2c-3.2-1-4.9-2.8-5.2-5.8c-0.6-7.5,9.4-10.5,17.4-6.5   l-0.3,5.9H129.6z M33.1,20.9c-0.4,8.6,6,11.7,11.6,10.5c0.8-0.2,2.5-1,4.8-2.2h0.2c0.1,0.1,0.1,0.2,0.4,0.3c0,1.1-0.8,2.1-2.5,3.1   c-1.5,0.9-3.1,1.5-4.7,1.7c-13.3,2.1-17.5-10.6-13.4-19.5c1.5-3.4,6.2-6,9.4-6.5c3.7-0.7,6.8,0.1,9.2,2.4c3.2,3,3.3,8.5,2.3,9.6   c-2,0.4-4,0.6-6,0.6H33.1z M50.5,12.1v-1.6c0,0,0.4,0,1.2-0.1c1.7-0.2,3.7-0.6,5.7-1.3c1-0.4,1.7-0.6,2.1-0.8   c0.1,0.1,0.2,0.2,0.2,0.2v5.1h0.1c0.2-0.3,1.3-1.3,3.3-3c1.4-1.2,2.7-1.9,4-2.1c10.6-1.9,16,7.9,11.3,17.1   c-1.1,2.4-3.3,4.5-6.4,6.5c-3.8,2.2-6.5,3-12.3,0.8c0,8.4,0,12.9,0.4,13.4c0.1,0.4,0.4,0.6,0.7,0.8c0.3,0.2,1.1,0.3,2.5,0.3h1v1.5   l-5.7-0.2h-5.7c-0.9,0-1.6,0.1-2,0.2v-1.6c1.9,0,3.1-0.2,3.6-0.4c0.4-0.5,0.6-1.7,0.7-3.5c0.2-6.5,0.2-13.8,0-21.7   c0-7.7-0.1-8.5-0.7-9.2c-0.5-0.1-1.4-0.2-2.3-0.2C51.1,12.1,50.6,12.1,50.5,12.1 M0,32.6c0,0,0.5,0,1.4,0c1.3,0,2.1-0.1,2.4-0.4   c0.2-0.2,0.5-0.4,0.7-0.8c0.2-0.5,0.2-2.5,0.2-6.2V6.9c0-1.8,0-3.1-0.2-3.5C4.2,1.7,2.9,1.6,0.7,1.6H0V0l6.5,0.3h3.2   c1,0,2.2-0.1,3.5-0.1c3.4-0.2,6-0.1,8.1,0.3c6.2,1.3,8.2,9.1,2.6,13.7c-1.6,1.4-3.3,2.1-5.1,2.5l-1.1,0.1c-0.1,0-0.1,0-0.1,0.2   c2.3,3.3,5.7,7.8,10.3,13.5c1.2,1.5,2,2.1,2.6,2.1h1v1.6c-1.2-0.2-3.5-0.2-6.8,0c-0.2-0.4-2.3-3.3-6.1-8.5   c-3.2-4.3-5.3-7.1-6.6-8.4l-0.8-0.8c0-0.1,0-0.2,0-0.4l0.1-0.3c0,0,0,0,0.1,0h3C21.3,16,24.2,9,21.1,4.7   c-2.6-3.6-7.4-2.9-11.4-1.9C9.3,6,9.1,26.7,9.3,29.2c0.2,3.3,0.9,3.4,3.4,3.4H14v1.7L10.5,34H4.6L0,34.2v-1.4h0V32.6z"/>		<path id="XMLID_48_" class="st1" d="M97.7,6.5l-0.9,0.7c-1.2,1-2.7,2.7-4.3,5.1c-1.3,1.8-2.3,3.9-3,6c-3,9,1.4,13.8,5.6,13.9   l1.4,0.1c-2.8,1.1-5.3,1.2-7.4,0.8c-5.1-1-9.4-5.3-7-12.7C85.5,10.2,96.6,6.3,97.7,6.5"/>		<path id="XMLID_47_" class="st0" d="M96.1,36.1l0.9-0.7c1.2-1,2.7-2.7,4.3-5.1c1.3-1.8,2.3-3.9,3-6c3-9-1.4-13.8-5.7-13.9   l-1.4-0.1c2.8-1.1,5.3-1.2,7.4-0.8c5.1,1,9.4,5.3,7,12.7C108.3,32.5,97.2,36.3,96.1,36.1"/>	</g>	<g id="XMLID_1_">		<path id="XMLID_2_" class="st0" d="M0,59.9v-4.3h1.5c0.5,0,0.9,0.1,1.1,0.3C2.8,56.1,3,56.4,3,56.8c0,0.2-0.1,0.4-0.2,0.5   c-0.1,0.2-0.3,0.3-0.5,0.4c0.2,0.1,0.4,0.2,0.5,0.4c0.1,0.2,0.2,0.4,0.2,0.6c0,0.4-0.1,0.7-0.4,0.9c-0.3,0.2-0.6,0.3-1.1,0.3H0z    M0.7,57.5h0.7c0.2,0,0.4-0.1,0.5-0.2c0.1-0.1,0.2-0.3,0.2-0.4c0-0.2-0.1-0.4-0.2-0.5c-0.1-0.1-0.3-0.1-0.6-0.1H0.7V57.5z M0.7,58   v1.3h0.8c0.2,0,0.4-0.1,0.5-0.2c0.1-0.1,0.2-0.3,0.2-0.5c0-0.4-0.2-0.7-0.7-0.7H0.7z"/>		<path id="XMLID_6_" class="st0" d="M7,58H5.2v1.3h2.1v0.6H4.5v-4.3h2.8v0.6h-2v1.2H7V58z"/>		<path id="XMLID_8_" class="st0" d="M11.1,58H9.4v1.3h2.1v0.6H8.6v-4.3h2.8v0.6h-2v1.2h1.8V58z"/>		<path id="XMLID_10_" class="st0" d="M13.5,59.3h2v0.6h-2.7v-4.3h0.7V59.3z"/>		<path id="XMLID_12_" class="st0" d="M16.7,59.9v-4.3h1.3c0.4,0,0.7,0.1,1,0.3c0.3,0.2,0.5,0.4,0.7,0.7c0.2,0.3,0.2,0.7,0.2,1.1   v0.2c0,0.4-0.1,0.8-0.2,1.1c-0.2,0.3-0.4,0.5-0.7,0.7c-0.3,0.2-0.6,0.3-1,0.3H16.7z M17.4,56.2v3.1h0.5c0.4,0,0.7-0.1,0.9-0.4   c0.2-0.2,0.3-0.6,0.3-1.1v-0.2c0-0.5-0.1-0.8-0.3-1.1c-0.2-0.2-0.5-0.4-0.9-0.4H17.4z"/>		<path id="XMLID_15_" class="st0" d="M21.3,59.9v-4.3h1.5c0.5,0,0.9,0.1,1.1,0.3c0.3,0.2,0.4,0.5,0.4,0.9c0,0.2-0.1,0.4-0.2,0.5   c-0.1,0.2-0.3,0.3-0.5,0.4c0.2,0.1,0.4,0.2,0.5,0.4c0.1,0.2,0.2,0.4,0.2,0.6c0,0.4-0.1,0.7-0.4,0.9c-0.3,0.2-0.6,0.3-1.1,0.3H21.3   z M22.1,57.5h0.7c0.2,0,0.4-0.1,0.5-0.2c0.1-0.1,0.2-0.3,0.2-0.4c0-0.2-0.1-0.4-0.2-0.5c-0.1-0.1-0.3-0.1-0.6-0.1h-0.7V57.5z    M22.1,58v1.3h0.8c0.2,0,0.4-0.1,0.5-0.2c0.1-0.1,0.2-0.3,0.2-0.5c0-0.4-0.2-0.7-0.7-0.7H22.1z"/>		<path id="XMLID_19_" class="st0" d="M28.3,58h-1.8v1.3h2.1v0.6h-2.8v-4.3h2.8v0.6h-2v1.2h1.8V58z"/>		<path id="XMLID_21_" class="st0" d="M30.7,58.3v1.6h-0.7v-4.3h1.6c0.5,0,0.9,0.1,1.1,0.4c0.3,0.3,0.4,0.6,0.4,1   c0,0.4-0.1,0.7-0.4,1c-0.3,0.2-0.7,0.4-1.2,0.4H30.7z M30.7,57.7h0.9c0.3,0,0.5-0.1,0.6-0.2c0.1-0.1,0.2-0.3,0.2-0.5   c0-0.2-0.1-0.4-0.2-0.6c-0.1-0.1-0.3-0.2-0.6-0.2h-0.9V57.7z"/>		<path id="XMLID_24_" class="st0" d="M36.3,58.9h-1.7l-0.3,1h-0.8l1.6-4.3h0.7l1.6,4.3h-0.8L36.3,58.9z M34.9,58.3h1.2l-0.6-1.8   L34.9,58.3z"/>		<path id="XMLID_27_" class="st0" d="M39.4,59.3h2v0.6h-2.7v-4.3h0.7V59.3z"/>		<path id="XMLID_29_" class="st0" d="M45.1,58h-1.8v1.3h2.1v0.6h-2.8v-4.3h2.8v0.6h-2v1.2h1.8V58z"/>		<path id="XMLID_31_" class="st0" d="M50.1,59.9h-0.7l-1.9-3v3h-0.7v-4.3h0.7l1.9,3.1v-3.1h0.7V59.9z"/>		<path id="XMLID_33_" class="st0" d="M51.7,59.9v-4.3H53c0.4,0,0.7,0.1,1,0.3c0.3,0.2,0.5,0.4,0.7,0.7c0.2,0.3,0.2,0.7,0.2,1.1v0.2   c0,0.4-0.1,0.8-0.2,1.1c-0.2,0.3-0.4,0.5-0.7,0.7c-0.3,0.2-0.6,0.3-1,0.3H51.7z M52.4,56.2v3.1h0.5c0.4,0,0.7-0.1,0.9-0.4   c0.2-0.2,0.3-0.6,0.3-1.1v-0.2c0-0.5-0.1-0.8-0.3-1.1c-0.2-0.2-0.5-0.4-0.9-0.4H52.4z"/>		<path id="XMLID_36_" class="st0" d="M59.3,58.3v1.6h-0.7v-4.3h1.6c0.5,0,0.9,0.1,1.1,0.4c0.3,0.3,0.4,0.6,0.4,1   c0,0.4-0.1,0.7-0.4,1c-0.3,0.2-0.7,0.4-1.2,0.4H59.3z M59.3,57.7h0.9c0.3,0,0.5-0.1,0.6-0.2c0.1-0.1,0.2-0.3,0.2-0.5   c0-0.2-0.1-0.4-0.2-0.6c-0.1-0.1-0.3-0.2-0.6-0.2h-0.9V57.7z"/>		<path id="XMLID_39_" class="st0" d="M64.7,58.3h-0.8v1.7h-0.7v-4.3h1.5c0.5,0,0.9,0.1,1.1,0.3c0.3,0.2,0.4,0.5,0.4,1   c0,0.3-0.1,0.5-0.2,0.7c-0.1,0.2-0.3,0.3-0.6,0.4l1,1.8v0h-0.8L64.7,58.3z M63.8,57.7h0.8c0.3,0,0.4-0.1,0.6-0.2   c0.1-0.1,0.2-0.3,0.2-0.5c0-0.2-0.1-0.4-0.2-0.5c-0.1-0.1-0.3-0.2-0.6-0.2h-0.8V57.7z"/>		<path id="XMLID_42_" class="st0" d="M68.3,59.9h-0.7v-4.3h0.7V59.9z"/>		<path id="XMLID_44_" class="st0" d="M73.3,59.9h-0.7l-1.9-3v3h-0.7v-4.3h0.7l1.9,3.1v-3.1h0.7V59.9z"/>		<path id="XMLID_57_" class="st0" d="M77.9,56.2h-1.3v3.7h-0.7v-3.7h-1.3v-0.6h3.4V56.2z"/>		<path id="XMLID_59_" class="st0" d="M79.7,58.4h-1.5v-0.6h1.5V58.4z"/>		<path id="XMLID_61_" class="st0" d="M85.8,58H84v1.3H86v0.6h-2.8v-4.3H86v0.6h-2v1.2h1.8V58z"/>		<path id="XMLID_63_" class="st0" d="M90.8,59.9H90l-1.9-3v3h-0.7v-4.3h0.7l1.9,3.1v-3.1h0.7V59.9z"/>		<path id="XMLID_65_" class="st0" d="M97,58.1h-1.7v1.8h-0.7v-4.3h2.7v0.6h-2v1.3H97V58.1z"/>		<path id="XMLID_67_" class="st0" d="M100.1,58.3h-0.8v1.7h-0.7v-4.3h1.5c0.5,0,0.9,0.1,1.1,0.3c0.3,0.2,0.4,0.5,0.4,1   c0,0.3-0.1,0.5-0.2,0.7c-0.1,0.2-0.3,0.3-0.6,0.4l1,1.8v0H101L100.1,58.3z M99.3,57.7h0.8c0.3,0,0.4-0.1,0.6-0.2   c0.1-0.1,0.2-0.3,0.2-0.5c0-0.2-0.1-0.4-0.2-0.5c-0.1-0.1-0.3-0.2-0.6-0.2h-0.8V57.7z"/>		<path id="XMLID_70_" class="st0" d="M105.5,58h-1.8v1.3h2.1v0.6H103v-4.3h2.8v0.6h-2v1.2h1.8V58z"/>		<path id="XMLID_72_" class="st0" d="M109.6,58h-1.8v1.3h2.1v0.6h-2.8v-4.3h2.8v0.6h-2v1.2h1.8V58z"/>		<path id="XMLID_74_" class="st0" d="M113.4,58.8c0-0.2-0.1-0.3-0.2-0.4c-0.1-0.1-0.4-0.2-0.7-0.3c-0.3-0.1-0.6-0.2-0.8-0.3   c-0.4-0.2-0.6-0.6-0.6-1c0-0.3,0.1-0.6,0.4-0.9c0.3-0.2,0.6-0.3,1.1-0.3c0.3,0,0.6,0.1,0.8,0.2c0.2,0.1,0.4,0.3,0.6,0.5   s0.2,0.4,0.2,0.7h-0.7c0-0.2-0.1-0.4-0.2-0.5c-0.1-0.1-0.3-0.2-0.6-0.2c-0.2,0-0.4,0.1-0.6,0.2c-0.1,0.1-0.2,0.2-0.2,0.4   c0,0.2,0.1,0.3,0.2,0.4c0.1,0.1,0.4,0.2,0.7,0.3c0.3,0.1,0.6,0.2,0.8,0.3c0.2,0.1,0.4,0.3,0.4,0.4c0.1,0.2,0.1,0.4,0.1,0.6   c0,0.4-0.1,0.6-0.4,0.9c-0.3,0.2-0.6,0.3-1.1,0.3c-0.3,0-0.6-0.1-0.9-0.2c-0.3-0.1-0.5-0.3-0.6-0.5c-0.1-0.2-0.2-0.4-0.2-0.7h0.7   c0,0.2,0.1,0.4,0.2,0.6c0.2,0.1,0.4,0.2,0.7,0.2c0.3,0,0.5-0.1,0.6-0.2C113.4,59.1,113.4,59,113.4,58.8z"/>		<path id="XMLID_76_" class="st0" d="M118.9,58.9l0.7-3.2h0.7l-1,4.3h-0.7l-0.8-3.1l-0.8,3.1h-0.7l-1-4.3h0.7l0.7,3.2l0.8-3.2h0.6   L118.9,58.9z"/>		<path id="XMLID_78_" class="st0" d="M124,58h-1.8v1.3h2.1v0.6h-2.8v-4.3h2.8v0.6h-2v1.2h1.8V58z"/>		<path id="XMLID_80_" class="st0" d="M127.2,58.3h-0.8v1.7h-0.7v-4.3h1.5c0.5,0,0.9,0.1,1.1,0.3c0.3,0.2,0.4,0.5,0.4,1   c0,0.3-0.1,0.5-0.2,0.7c-0.1,0.2-0.3,0.3-0.6,0.4l1,1.8v0h-0.8L127.2,58.3z M126.4,57.7h0.8c0.3,0,0.4-0.1,0.6-0.2   c0.1-0.1,0.2-0.3,0.2-0.5c0-0.2-0.1-0.4-0.2-0.5c-0.1-0.1-0.3-0.2-0.6-0.2h-0.8V57.7z"/>		<path id="XMLID_83_" class="st0" d="M131.3,58.1l-0.5,0.5v1.3h-0.7v-4.3h0.7v2l0.4-0.5l1.3-1.5h0.9l-1.6,1.9l1.7,2.4h-0.9   L131.3,58.1z"/>	</g></g></svg>